<?xml version="1.0" encoding="UTF-8"?>
<svg version="1.1" xmlns="http://www.w3.org/2000/svg" width="1024" height="1024">
<path d="M0 0 C10.70998743 7.53720951 20.15499962 16.9980642 29.36181641 26.26416016 C30.67609367 27.58062782 30.67609367 27.58062782 32.016922 28.9236908 C33.90095096 30.81149746 35.78405925 32.70016873 37.66560745 34.59044266 C40.64822236 37.58674586 43.63479659 40.57908247 46.62191772 43.57089233 C52.95927357 49.91927662 59.29236173 56.27191036 65.625 62.625 C72.47185348 69.49394794 79.31947338 76.36212201 86.17199647 83.22541463 C89.13418706 86.19255047 92.0939317 89.16209725 95.05174661 92.13359475 C97.3314798 94.42261077 99.61450403 96.708341 101.89697266 98.99462891 C102.70341721 99.80623978 103.50986176 100.61785065 104.34074402 101.45405579 C110.27318877 107.3870492 116.45647124 112.90559461 122.92749023 118.2409668 C135.69889577 129.33636784 140.09764257 141.9847894 145.0625 157.8125 C145.84122789 160.18181411 146.62441417 162.54966765 147.41210938 164.91601562 C148.92755035 169.48736615 150.43508781 174.06111069 151.93017578 178.63916016 C152.27945129 179.70765198 152.62872681 180.7761438 152.98858643 181.87701416 C153.64716192 183.91052647 154.29715314 185.94684544 154.93719482 187.98626709 C155.78299823 190.67156159 156.6658021 193.34175213 157.55859375 196.01171875 C157.79111343 196.78828323 158.02363312 197.56484772 158.26319885 198.36494446 C159.30570037 201.38815363 160.01178615 203.40436517 162.81625366 205.09472656 C164.86119625 205.87811955 166.87677137 206.46920513 169 207 C169.89170898 207.30760254 170.78341797 207.61520508 171.70214844 207.93212891 C172.4965332 208.19429199 173.29091797 208.45645508 174.109375 208.7265625 C187.12034454 213.08776202 199.65376405 218.00602144 212 224 C213.07725342 224.51916992 213.07725342 224.51916992 214.17626953 225.04882812 C223.08555345 229.39723528 231.47078277 234.42605594 239.75 239.875 C240.57685303 240.41535889 241.40370605 240.95571777 242.25561523 241.51245117 C255.56639675 250.46540369 266.86321275 261.5716232 278.13427734 272.89135742 C279.60223024 274.35823467 281.07061663 275.8246782 282.53939819 277.29072571 C286.48982527 281.23634837 290.43404392 285.18812203 294.37696409 289.14124465 C298.52099122 293.2941206 302.67035556 297.44165789 306.81900024 301.58992004 C313.77711845 308.54897153 320.731372 315.51186571 327.68310547 322.47729492 C335.706813 330.51675216 343.73575979 338.55094617 351.767712 346.5821659 C360.34614246 355.15991985 368.92075834 363.74147923 377.49425936 372.32415986 C379.95493332 374.78695938 382.4163119 377.24905278 384.87784958 379.710989 C388.74954238 383.5836898 392.61866231 387.45894354 396.48584366 391.33614922 C397.90110553 392.75431925 399.31719981 394.17165917 400.73420715 395.58808517 C413.88330167 408.73382754 413.88330167 408.73382754 418.17107773 413.9989875 C420.00403147 416.10520038 420.00403147 416.10520038 422.46042132 417.98650795 C426.55689644 421.4328285 429.52719059 424.21216856 430.92157447 429.48474413 C431.25985166 433.70316529 431.28747884 437.82007213 431.20254517 442.04641724 C431.20691118 443.66786182 431.21567672 445.28929947 431.22843683 446.91069973 C431.25071697 451.3470349 431.2109191 455.78093959 431.16065621 460.2169652 C431.11736275 465.00756026 431.13209286 469.79802465 431.13967896 474.58876038 C431.14491576 482.88247125 431.11361326 491.17539381 431.05730057 499.4689064 C430.97593653 511.45970524 430.94997674 523.45012393 430.93742065 535.44116889 C430.91554884 554.8968676 430.84903922 574.3521464 430.75439453 593.80761719 C430.66256656 612.70375471 430.59180093 631.59977807 430.54931641 650.49609375 C430.54668917 651.66138179 430.54406194 652.82666982 430.54135509 654.02726962 C430.52830446 659.87333442 430.51566744 665.71940002 430.50323606 671.56546617 C430.39961398 720.04393428 430.2235222 768.52194663 430 817 C425.97577609 818.34632025 421.95112969 819.69136844 417.92612553 821.03535366 C416.56346259 821.49054296 415.20090588 821.94605045 413.8384676 822.40191174 C401.40003419 826.56329642 388.91259117 830.55632337 376.39651489 834.478302 C370.31184126 836.38548979 364.23020026 838.30230386 358.1484375 840.21875 C356.90737747 840.60970352 355.66631744 841.00065704 354.38764954 841.40345764 C341.78154386 845.3779161 329.18895532 849.39399765 316.60183716 853.42819214 C314.2497223 854.18201192 311.89740814 854.93521012 309.54489136 855.68777466 C306.2910814 856.72889972 303.03799352 857.77224674 299.78515625 858.81640625 C298.81716095 859.12594238 297.84916565 859.43547852 296.85183716 859.75439453 C295.97268646 860.03726318 295.09353577 860.32013184 294.18774414 860.61157227 C293.42256973 860.85706314 292.65739532 861.10255402 291.86903381 861.35548401 C289.94240131 861.97413331 289.94240131 861.97413331 288 863 C287.2231045 864.91459433 286.54726107 866.87037665 285.91552734 868.83764648 C285.61665776 869.75766134 285.61665776 869.75766134 285.31175041 870.69626236 C284.64589106 872.75227512 283.99095807 874.81160461 283.3359375 876.87109375 C282.86732757 878.32563334 282.39805564 879.77995981 281.92816162 881.23408508 C280.66410167 885.15228047 279.40941825 889.07342158 278.15641022 892.99516296 C276.85441054 897.0646286 275.54366631 901.13127539 274.23388672 905.19824219 C271.38070238 914.06342037 268.53965443 922.93245624 265.70272827 931.80284882 C265.03680435 933.88492748 264.37063388 935.96692704 263.7043457 938.04888916 C262.54743757 941.66402287 261.39082918 945.2792523 260.234375 948.89453125 C259.87707306 950.0114183 259.51977112 951.12830536 259.15164185 952.27903748 C257.53512369 957.33378225 255.921059 962.38927209 254.31396484 967.44702148 C251.04429372 977.72146586 247.69439541 987.96609254 244.27685547 998.19238281 C243.8637059 999.43017487 243.45055634 1000.66796692 243.02488708 1001.94326782 C242.01709964 1004.96234867 241.00879444 1007.98125551 240 1011 C192.17261748 1012.12687993 144.34666367 1012.98760883 96.50857389 1013.50220114 C90.8335752 1013.56346995 85.15860249 1013.62689327 79.48364258 1013.69165039 C78.35408095 1013.7045036 77.22451931 1013.71735681 76.06072854 1013.73059952 C57.87998253 1013.94259039 39.70699592 1014.32817944 21.53082115 1014.78048701 C2.81467646 1015.24227078 -15.89746983 1015.5115993 -34.61907488 1015.61033624 C-45.11150406 1015.67098481 -55.58777236 1015.8152056 -66.07438469 1016.18077278 C-137.75418043 1018.60884999 -137.75418043 1018.60884999 -161.67846328 996.7923972 C-171.13678735 987.82980997 -179.36300435 977.75243657 -186.99575138 967.21678829 C-190.52535834 962.41287601 -194.40767021 958.75610779 -199 955 C-200.85162353 953.23737509 -202.68597721 951.45636258 -204.49942017 949.65447998 C-204.99457103 949.16371137 -205.4897219 948.67294276 -205.99987733 948.16730237 C-207.63064262 946.54971151 -209.25797897 944.92871865 -210.88525391 943.30761719 C-212.06550345 942.1352858 -213.24592831 940.9631309 -214.42651367 939.7911377 C-218.28024224 935.96344058 -222.12869832 932.13046605 -225.9765625 928.296875 C-227.3110649 926.96774085 -228.64557192 925.63861135 -229.98008347 924.30948639 C-235.53963692 918.77153778 -241.09775153 913.23215165 -246.65215492 907.68903732 C-254.56034917 899.79703223 -262.47686656 891.91359801 -270.40548384 884.04210925 C-276.00792116 878.47864043 -281.60048905 872.90536767 -287.18610322 867.32500958 C-290.5080503 864.00668053 -293.8338738 860.69249321 -297.17039871 857.38881683 C-313.86558939 840.85008689 -329.87202316 824.44680776 -341.25 803.625 C-341.73122314 802.76036133 -342.21244629 801.89572266 -342.70825195 801.00488281 C-354.19109976 780.09948418 -363.5781512 758.28842617 -369 735 C-370.26263672 734.74637695 -371.52527344 734.49275391 -372.82617188 734.23144531 C-378.30677833 733.00999957 -383.50522495 731.19986322 -388.78125 729.296875 C-389.79360718 728.93660217 -390.80596436 728.57632935 -391.84899902 728.20513916 C-395.06780467 727.05841257 -398.28393831 725.90439688 -401.5 724.75 C-403.62742727 723.99038981 -405.75503011 723.23127114 -407.8828125 722.47265625 C-418.82516623 718.57036889 -418.82516623 718.57036889 -422.72891235 717.13687134 C-425.17330568 716.28731883 -427.58990738 715.52766369 -430.07260132 714.81112671 C-441.16094987 711.48144877 -447.88541065 706.64648812 -455.7890625 698.3203125 C-456.91146538 697.17984945 -458.03630933 696.04178433 -459.16342163 694.90597534 C-462.08918742 691.94434976 -464.98003423 688.95088299 -467.86450195 685.94909668 C-470.79808111 682.9095409 -473.76628096 679.90418721 -476.73046875 676.89453125 C-493.53206462 659.78777291 -493.53206462 659.78777291 -498.32055664 654.14648438 C-503.30673287 648.35871654 -508.85202058 643.09024582 -514.28699684 637.72953415 C-516.37318181 635.67031892 -518.45468565 633.60647856 -520.53483582 631.54116821 C-526.44479969 625.67361125 -532.35727834 619.80867808 -538.28637695 613.96044922 C-541.92784198 610.36797939 -545.55906171 606.76541421 -549.18414879 603.15642166 C-550.55375169 601.79660342 -551.92697141 600.44041646 -553.3041172 599.08823776 C-563.94397674 588.63698597 -573.86517968 577.65007405 -580.375 564.0625 C-580.69533203 563.40048584 -581.01566406 562.73847168 -581.34570312 562.05639648 C-587.59065266 548.66504977 -591.6398378 531.16903874 -586.41015625 516.671875 C-583.59886366 511.34521535 -579.9309439 506.57940414 -576.3828125 501.7265625 C-573.06108401 497.15092399 -570.04828913 492.42415529 -567.0625 487.625 C-558.57972572 474.07594976 -549.54227404 460.89475482 -540.56860352 447.66845703 C-534.68098882 438.98447059 -528.83782582 430.28091111 -523.16256714 421.45643616 C-517.16383106 412.12933871 -511.04371252 402.88193212 -504.9375 393.625 C-504.29772217 392.65457764 -503.65794434 391.68415527 -502.9987793 390.68432617 C-495.02236881 378.58619119 -487.0223149 366.50491173 -478.96655273 354.45947266 C-471.76156009 343.67228528 -464.6332769 332.83469322 -457.5 322 C-449.02501167 309.12738901 -440.53285227 296.26793075 -431.96484375 283.45703125 C-425.40644504 273.63755031 -418.9123147 263.77601308 -412.41870117 253.91360474 C-408.67214681 248.22435063 -404.92248583 242.53714329 -401.17297363 236.84983826 C-398.45271196 232.72327306 -395.73356558 228.59599617 -393.01953125 224.46533203 C-390.89475112 221.23161019 -388.76487452 218.00131996 -386.63012695 214.77416992 C-385.53776635 213.11970023 -384.45139053 211.46128389 -383.36523438 209.80273438 C-377.35554702 200.73727379 -370.99049998 195.42865727 -361.9375 189.5 C-360.77374821 188.731635 -359.61034953 187.96273499 -358.44726562 187.19335938 C-355.07889892 184.9675854 -351.70539863 182.74969208 -348.33123779 180.53271484 C-344.0111942 177.69242332 -339.69536093 174.84574141 -335.37890625 172 C-329.64591361 168.22076986 -323.91255497 164.4421008 -318.17749023 160.66601562 C-307.24876839 153.46919254 -296.34066504 146.24392151 -285.46362305 138.96923828 C-273.63712762 131.07033774 -261.75175577 123.26074026 -249.87353516 115.43994141 C-239.56510892 108.65222328 -229.25781316 101.86406382 -219 95 C-207.76739254 87.483648 -196.47577196 80.0573678 -185.1875 72.625 C-172.25404311 64.10936457 -159.33243215 55.5783973 -146.4621582 46.9675293 C-139.48017146 42.3030228 -132.47597559 37.67325809 -125.4609375 33.05859375 C-124.05001831 32.13042343 -124.05001831 32.13042343 -122.6105957 31.1835022 C-120.67380387 29.90950056 -118.73699542 28.6355242 -116.8001709 27.36157227 C-115.3522113 26.40915649 -115.3522113 26.40915649 -113.875 25.4375 C-112.44057556 24.4940271 -112.44057556 24.4940271 -110.97717285 23.53149414 C-98.70226597 15.4547025 -86.46322639 7.33457874 -74.35498047 -0.99047852 C-71.90994809 -2.67039719 -69.4584795 -4.33983814 -67 -6 C-66.28779297 -6.4846875 -65.57558594 -6.969375 -64.84179688 -7.46875 C-44.68187753 -20.71614685 -18.67678032 -11.53628911 0 0 Z " fill="#00D1B8" transform="translate(591,13)"/>
<path d="M0 0 C3.63054622 1.53407301 5.94848282 3.69903274 8.72232127 6.47392428 C9.4164312 7.16419995 9.4164312 7.16419995 10.12456355 7.86842058 C11.68250715 9.42021197 13.23319049 10.97906255 14.78403854 12.53794289 C15.91215179 13.66457741 17.04070375 14.79077279 18.16965562 15.91656697 C21.28895521 19.02970713 24.401948 22.14908922 27.51400227 25.26946989 C30.89381623 28.65613361 34.27941137 32.03700935 37.66429353 35.41860616 C43.60189558 41.3520536 49.53575691 47.28922177 55.4672184 53.22880745 C64.28716549 62.06080154 73.11281637 70.88707918 81.93966751 79.71217258 C96.78611259 94.55598685 111.62788921 109.40446069 126.46703339 124.25557327 C141.16487852 138.96524252 155.86478098 153.67285075 170.56745148 168.37769699 C171.48077905 169.29116204 172.39410662 170.20462709 173.33511078 171.1457729 C177.97323518 175.78457394 182.61139651 180.42333805 187.24957207 185.06208794 C196.6819872 194.49570921 206.11407689 203.92965585 215.54602432 213.36374474 C216.25392008 214.07180045 216.25392008 214.07180045 216.97611676 214.79416031 C239.9389471 237.76223509 262.89809061 260.73399428 285.85693359 283.70605469 C293.82526369 291.67896806 301.79361008 299.65186515 309.76202393 307.62469482 C310.25621832 308.11916312 310.75041272 308.61363142 311.25958271 309.1230836 C334.22874521 332.10493169 357.20052426 355.08416366 380.17297966 378.06272015 C381.66416757 379.55430419 383.15535435 381.04588935 384.64654091 382.53747475 C394.52862282 392.42219621 404.41074986 402.30687255 414.29290712 412.19151868 C434.4249507 432.32863345 454.55670779 452.46603462 474.68829346 472.60360718 C475.6139615 473.5295498 476.53962954 474.45549242 477.49334813 475.40949391 C539.33367098 537.26822572 601.16735133 599.13359736 663 661 C661.23393855 666.57369188 659.46756839 672.1472858 657.7009325 677.72079563 C657.10206695 679.61028221 656.50328055 681.49979387 655.90458012 683.38933277 C651.03709151 698.7511708 646.13060666 714.09981427 641.1875 729.4375 C639.66088522 734.17820104 638.13497056 738.91912713 636.609375 743.66015625 C636.22994247 744.83916504 635.85050995 746.01817383 635.45957947 747.23291016 C632.73858718 755.69229352 630.03026317 764.15567064 627.328125 772.62109375 C626.955168 773.78903976 626.582211 774.95698578 626.19795227 776.1603241 C624.41731605 781.73702417 622.63837679 787.31425642 620.86206055 792.89233398 C620.22972235 794.87355667 619.59732048 796.85475903 618.96484375 798.8359375 C618.53338043 800.19415871 618.53338043 800.19415871 618.09320068 801.57981873 C617.69889862 802.81333824 617.69889862 802.81333824 617.29663086 804.07177734 C617.06890488 804.78667328 616.84117889 805.50156921 616.60655212 806.23812866 C616 808 616 808 615 810 C567.17261748 811.12687993 519.34666367 811.98760883 471.50857389 812.50220114 C465.8335752 812.56346995 460.15860249 812.62689327 454.48364258 812.69165039 C453.35408095 812.7045036 452.22451931 812.71735681 451.06072854 812.73059952 C432.87998253 812.94259039 414.70699592 813.32817944 396.53082115 813.78048701 C377.81467646 814.24227078 359.10253017 814.5115993 340.38092512 814.61033624 C329.88849594 814.67098481 319.41222764 814.8152056 308.92561531 815.18077278 C237.24581957 817.60884999 237.24581957 817.60884999 213.32153672 795.7923972 C203.86321265 786.82980997 195.63699565 776.75243657 188.00424862 766.21678829 C184.47464166 761.41287601 180.59232979 757.75610779 176 754 C174.14837647 752.23737509 172.31402279 750.45636258 170.50057983 748.65447998 C169.75785354 747.91832706 169.75785354 747.91832706 169.00012267 747.16730237 C167.36935738 745.54971151 165.74202103 743.92871865 164.11474609 742.30761719 C162.93449655 741.1352858 161.75407169 739.9631309 160.57348633 738.7911377 C156.71975776 734.96344058 152.87130168 731.13046605 149.0234375 727.296875 C147.6889351 725.96774085 146.35442808 724.63861135 145.01991653 723.30948639 C139.46036308 717.77153778 133.90224847 712.23215165 128.34784508 706.68903732 C120.43965083 698.79703223 112.52313344 690.91359801 104.59451616 683.04210925 C98.99207884 677.47864043 93.39951095 671.90536767 87.81389678 666.32500958 C84.4919497 663.00668053 81.1661262 659.69249321 77.82960129 656.38881683 C61.13441061 639.85008689 45.12797684 623.44680776 33.75 602.625 C33.02816528 601.32804199 33.02816528 601.32804199 32.29174805 600.00488281 C18.94625292 575.70839292 8.91185691 550.44491188 3.875 523.125 C3.70613281 522.2278125 3.53726563 521.330625 3.36328125 520.40625 C2.90107887 517.93874438 2.44253466 515.47110955 2 513 C1.75627062 511.76668492 1.75627062 511.76668492 1.50761741 510.50845438 C0.83021321 505.82649967 0.63476587 501.17016305 0.44501591 496.44627285 C0.40287232 495.4287504 0.36072874 494.41122796 0.31730807 493.36287149 C-0.07589769 483.19331712 -0.13706454 473.0354135 -0.12025452 462.8596344 C-0.1206921 460.84338061 -0.12157042 458.82712688 -0.12284368 456.81087345 C-0.12505199 451.34446933 -0.12111839 445.87808525 -0.11606562 440.41168368 C-0.1117079 434.48906055 -0.11321129 428.56643837 -0.1139679 422.64381409 C-0.11448978 412.40700072 -0.11137815 402.17019378 -0.10573006 391.93338203 C-0.09981711 381.20949834 -0.0959598 370.48561741 -0.09487724 359.7617321 C-0.0948085 359.09232127 -0.09473976 358.42291044 -0.09466894 357.73321444 C-0.09433056 354.33293875 -0.09402919 350.93266306 -0.09374207 347.53238737 C-0.09164753 323.51418424 -0.08492669 299.49598445 -0.07543945 275.4777832 C-0.06623949 252.15974953 -0.05916351 228.84171677 -0.05493164 205.52368164 C-0.05480011 204.80358368 -0.05466859 204.08348572 -0.05453308 203.34156661 C-0.05321444 196.10935231 -0.05193864 188.877138 -0.05069422 181.64492369 C-0.04815872 166.91505141 -0.04533747 152.1851792 -0.04234314 137.45530701 C-0.0421372 136.43965855 -0.0421372 136.43965855 -0.04192711 135.40349195 C-0.03274282 90.26899323 -0.01687863 45.13449643 0 0 Z " fill="#00D1B8" transform="translate(216,214)"/>
<path d="M0 0 C47.19549228 -0.03426075 94.39098554 -0.06609884 141.58648682 -0.08468628 C142.63541905 -0.08510045 142.63541905 -0.08510045 143.70554183 -0.08552299 C158.90551574 -0.09150978 174.10548978 -0.09705 189.30546401 -0.10213066 C196.76028333 -0.10462518 204.21510261 -0.10721831 211.66992188 -0.10986328 C212.7826466 -0.11025556 212.7826466 -0.11025556 213.9178506 -0.11065576 C237.93196116 -0.1191678 261.94606226 -0.13418244 285.96016709 -0.15259444 C310.6522035 -0.17149169 335.34423468 -0.18377831 360.03627819 -0.18782998 C363.52945739 -0.18840623 367.02263656 -0.1890575 370.51581573 -0.18975449 C371.54700645 -0.18995676 371.54700645 -0.18995676 372.59902931 -0.19016311 C383.63406598 -0.19252011 394.66908641 -0.20177878 405.70411648 -0.21366407 C416.81692223 -0.22548417 427.92971574 -0.22976349 439.04252848 -0.22700275 C445.05601605 -0.22572559 451.06945625 -0.22764203 457.08293533 -0.23841095 C462.60073443 -0.24821947 468.11845479 -0.24858612 473.63625768 -0.24179779 C475.62045123 -0.24096011 477.60464992 -0.24343233 479.58883354 -0.24976636 C521.92672994 -0.37693554 521.92672994 -0.37693554 534 6 C535.89306528 8.79847905 536.90569114 11.81898309 538 15 C538.35610352 15.95398682 538.71220703 16.90797363 539.07910156 17.89086914 C540.29402124 21.16624089 541.46326266 24.45540359 542.625 27.75 C543.0566748 28.96574707 543.48834961 30.18149414 543.93310547 31.43408203 C547.48469885 41.45369668 550.94095338 51.5059185 554.38916016 61.56152344 C557.15692714 69.61380194 560.023063 77.6234141 562.96142578 85.61474609 C566.19695127 94.45376796 569.23785656 103.35774505 572.2890625 112.26171875 C574.78772949 119.53544565 577.34581709 126.78164616 580 134 C583.00417045 142.17261138 585.86971909 150.38634535 588.6875 158.625 C592.50979744 169.79327533 596.47041659 180.90503861 600.5 192 C604.83338173 203.93608141 609.07405219 215.89572669 613.18920898 227.90917969 C616.60323703 237.8716282 620.07132934 247.81434519 623.5625 257.75 C623.84139069 258.5438913 624.12028137 259.33778259 624.40762329 260.1557312 C628.13907709 270.77182914 631.92125527 281.36817352 635.75585938 291.94750977 C639.05069974 301.06953225 642.19567462 310.24143367 645.34057617 319.41601562 C648.12424882 327.5167247 651.0051644 335.57487813 653.96118164 343.61401367 C657.19672575 352.45330335 660.23777274 361.35750046 663.2890625 370.26171875 C665.78772949 377.53544565 668.34581709 384.78164616 671 392 C674.00417045 400.17261138 676.86971909 408.38634535 679.6875 416.625 C683.50979572 427.79327031 687.47020842 438.90511715 691.5 450 C695.87946159 462.06042712 700.17501173 474.14154378 704.30786133 486.28930664 C706.49873541 492.7133798 708.75634227 499.10619324 711.09765625 505.4765625 C711.87447169 507.6055433 712.65049008 509.73481345 713.42645264 511.86410522 C713.92838592 513.23157051 714.43532098 514.59721167 714.9475708 515.96084595 C715.65839697 517.85341549 716.35106238 519.75277567 717.04296875 521.65234375 C717.44539795 522.73507568 717.84782715 523.81780762 718.26245117 524.93334961 C719.79426472 531.30246908 717.16220632 536.43106381 714.59765625 542.1484375 C714.24830521 542.94161377 713.89895416 543.73479004 713.53901672 544.55200195 C712.38689322 547.16269687 711.22482029 549.7688308 710.0625 552.375 C709.25357998 554.20242032 708.4451564 556.03006048 707.63720703 557.85791016 C701.22860109 572.3328135 694.73696704 586.77147319 688.19165039 601.18505859 C684.24121374 609.90144473 680.40796523 618.65444396 676.74215698 627.49484253 C674.7162421 632.36794223 672.57386838 637.16918755 670.3125 641.9375 C667.33801743 648.21393111 664.60199913 654.56095146 662 661 C658.37286529 659.46672331 656.0559546 657.30580031 653.28409076 654.53363842 C652.82204523 654.0742733 652.35999971 653.61490818 651.88395281 653.1416229 C650.32837844 651.59261957 648.7800608 650.03655885 647.23157883 648.4804678 C646.10517061 647.35584161 644.97832408 646.23165427 643.85107803 645.10786787 C640.73651401 642.00029707 637.62825536 638.88648419 634.52093693 635.77167068 C631.14625059 632.39103306 627.76579016 629.01617782 624.38604474 625.64059931 C618.45744904 619.71770145 612.53260044 613.79107561 606.61015701 607.86202621 C597.80359619 599.04566942 588.99134186 590.2350202 580.17791167 581.42553116 C565.35391965 566.60782277 550.53466826 551.7853817 535.71816254 536.96018791 C521.04243136 522.27585288 506.36485831 507.59336328 491.68473053 492.91342354 C490.3168187 491.54552317 490.3168187 491.54552317 488.92127228 490.14998846 C485.21976007 486.44851715 481.5182355 482.7470582 477.8166941 479.04561609 C467.46897391 468.69816593 457.12157935 458.35039018 446.77443314 448.00236607 C446.06761206 447.29548548 446.06761206 447.29548548 445.34651177 446.57432448 C430.3276503 431.55415472 415.31022149 416.53255342 400.29383469 401.50990963 C399.80665862 401.02253062 399.31948255 400.53515162 398.81754358 400.03300355 C390.90560814 392.1177592 382.99376588 384.20242173 375.08192831 376.28707957 C343.69432403 344.88558338 312.30309637 313.48771462 280.90820312 282.09350586 C279.91571548 281.1010386 278.92322791 280.10857125 277.93074044 279.11610382 C275.94813657 277.13354012 273.9655324 275.15097673 271.98292804 273.16841352 C267.53779198 268.72336888 263.09265945 264.27832071 258.6475337 259.83326577 C257.66306457 258.84881241 256.6785951 257.86435938 255.6941253 256.8799067 C229.4144699 230.60069625 203.13727283 204.3190281 176.86100316 178.03643233 C175.94433727 177.11954616 175.02767137 176.20265999 174.08322772 175.2579894 C170.39676877 171.57064217 166.71030988 167.88329489 163.02386394 164.19593466 C150.17555656 151.34446237 137.32641941 138.49382023 124.47675028 125.64370951 C107.92313369 109.08949696 91.37120666 92.53359806 74.82222459 75.97475236 C66.06104846 67.20844509 57.29850305 58.4435118 48.53400339 49.68052734 C42.6914416 43.83869635 36.85068386 37.99506591 31.01143916 32.14991931 C27.67673987 28.81194935 24.34123177 25.47479808 21.00355968 22.13980042 C17.97449018 19.11312302 14.94768342 16.0842028 11.92275962 13.05338225 C10.82790429 11.95721379 9.73218867 10.86190383 8.6355651 9.76750434 C7.15958431 8.29427893 5.68665171 6.8180751 4.21451259 5.34101242 C2.98423202 4.1102946 2.98423202 4.1102946 1.72909729 2.85471379 C0 1 0 1 0 0 Z " fill="#0082C8" transform="translate(217,213)"/>
<path d="M0 0 C8.63726983 2.11914277 16.93464897 5.033862 25.27023315 8.09579468 C29.25214629 9.55792701 33.23977601 11.00434582 37.2265625 12.453125 C38.04186935 12.7498259 38.85717621 13.04652679 39.69718933 13.35221863 C47.92734396 16.34449708 56.17835666 19.27632768 64.4375 22.1875 C65.14184174 22.4359668 65.84618347 22.68443359 66.5718689 22.94042969 C76.15698986 26.3198107 85.76026169 29.64320985 95.375 32.9375 C106.29251821 36.67832984 117.15237159 40.56215254 128 44.5 C138.43257249 48.28632591 148.8736461 52.03247274 159.375 55.625 C173.69479439 60.52426279 187.97303389 65.539966 202.25 70.5625 C203.38669128 70.96196838 204.52338257 71.36143677 205.69451904 71.77301025 C218.97582152 76.44113742 232.23845423 81.15674351 245.47947693 85.9379425 C252.90055807 88.61399759 260.34248614 91.21345324 267.8125 93.75 C278.91886985 97.5493876 289.96684206 101.49363776 301 105.5 C311.3705793 109.26375447 321.74889565 112.99042579 332.1875 116.5625 C346.49516963 121.45875704 360.76770092 126.45443505 375.03778458 131.45899582 C376.90445949 132.11341662 378.77136528 132.76717874 380.63827515 133.42092896 C393.66378001 137.9827052 406.67150825 142.58429124 419.63386536 147.32273865 C426.6021667 149.86661949 433.60032538 152.30321263 440.625 154.6875 C451.79383161 158.50714371 462.90511542 162.47094537 474 166.5 C485.4542155 170.65651164 496.92288727 174.7635453 508.4375 178.75 C509.63955078 179.16830078 510.84160156 179.58660156 512.08007812 180.01757812 C513.74006836 180.58895508 513.74006836 180.58895508 515.43359375 181.171875 C516.87303345 181.6683252 516.87303345 181.6683252 518.34155273 182.17480469 C519.21884033 182.44711914 520.09612793 182.71943359 521 183 C521.80324707 183.26280762 522.60649414 183.52561523 523.43408203 183.79638672 C527.13878766 184.09036621 529.31947573 182.74990721 532.62109375 181.0859375 C533.96488607 180.42582204 535.30983172 179.76805058 536.65576172 179.11230469 C537.36400085 178.76421753 538.07223999 178.41613037 538.80194092 178.05749512 C542.52439193 176.26660887 546.31021765 174.62437729 550.09765625 172.9765625 C551.28830437 172.45601036 551.28830437 172.45601036 552.50300598 171.92494202 C554.16160729 171.19989833 555.82051375 170.47555237 557.47970581 169.75186157 C571.37837758 163.68793314 585.25255378 157.57169649 599.08843994 151.36584473 C601.4254538 150.31790165 603.76314815 149.27149216 606.10107422 148.22558594 C613.19740205 145.05037514 620.29123405 141.86998815 627.37693787 138.67112732 C630.55365562 137.23941817 633.73391296 135.81570534 636.91506958 134.39389038 C638.41834473 133.7198664 639.92006667 133.04236653 641.4201355 132.36123657 C643.47804541 131.42721224 645.54094068 130.50521973 647.60546875 129.5859375 C648.77231201 129.0604834 649.93915527 128.5350293 651.14135742 127.99365234 C654 127 654 127 657 128 C656.74738403 128.77846283 656.49476807 129.55692566 656.23449707 130.35897827 C652.98813299 140.36382234 649.74359627 150.36925828 646.5 160.375 C646.23919395 161.1794606 645.97838791 161.9839212 645.70967865 162.8127594 C638.19043872 186.00690615 630.69859927 209.20917903 623.31445312 232.44677734 C620.04400266 242.72110215 616.69443517 252.96597354 613.27685547 263.19238281 C612.65713112 265.04907089 612.65713112 265.04907089 612.02488708 266.94326782 C611.01709964 269.96234867 610.00879444 272.98125551 609 276 C561.17261748 277.12687993 513.34666367 277.98760883 465.50857389 278.50220114 C459.8335752 278.56346995 454.15860249 278.62689327 448.48364258 278.69165039 C447.35408095 278.7045036 446.22451931 278.71735681 445.06072854 278.73059952 C426.87998253 278.94259039 408.70699592 279.32817944 390.53082115 279.78048701 C371.81467646 280.24227078 353.10253017 280.5115993 334.38092512 280.61033624 C323.88849594 280.67098481 313.41222764 280.8152056 302.92561531 281.18077278 C231.24581957 283.60884999 231.24581957 283.60884999 207.32153672 261.7923972 C197.86321265 252.82980997 189.63699565 242.75243657 182.00424862 232.21678829 C178.47464166 227.41287601 174.59232979 223.75610779 170 220 C168.14837647 218.23737509 166.31402279 216.45636258 164.50057983 214.65447998 C163.75785354 213.91832706 163.75785354 213.91832706 163.00012267 213.16730237 C161.36935738 211.54971151 159.74202103 209.92871865 158.11474609 208.30761719 C156.93449655 207.1352858 155.75407169 205.9631309 154.57348633 204.7911377 C150.71975776 200.96344058 146.87130168 197.13046605 143.0234375 193.296875 C141.6889351 191.96774085 140.35442808 190.63861135 139.01991653 189.30948639 C133.46036308 183.77153778 127.90224847 178.23215165 122.34784508 172.68903732 C114.43965083 164.79703223 106.52313344 156.91359801 98.59451616 149.04210925 C92.99207884 143.47864043 87.39951095 137.90536767 81.81389678 132.32500958 C78.4919497 129.00668053 75.1661262 125.69249321 71.82960129 122.38881683 C55.13441061 105.85008689 39.12797684 89.44680776 27.75 68.625 C27.26877686 67.76036133 26.78755371 66.89572266 26.29174805 66.00488281 C14.80890024 45.09948418 5.4218488 23.28842617 0 0 Z " fill="#54DCC9" transform="translate(222,748)"/>
<path d="M0 0 C28.13945141 7.73441905 54.71420989 18.97498184 79.125 35.0625 C79.92905273 35.59133789 80.73310547 36.12017578 81.56152344 36.66503906 C94.72392816 45.61072912 105.95060571 56.65939353 117.13427734 67.89135742 C118.60223024 69.35823467 120.07061663 70.8246782 121.53939819 72.29072571 C125.48982527 76.23634837 129.43404392 80.18812203 133.37696409 84.14124465 C137.52099122 88.2941206 141.67035556 92.44165789 145.81900024 96.58992004 C152.77711845 103.54897153 159.731372 110.51186571 166.68310547 117.47729492 C174.706813 125.51675216 182.73575979 133.55094617 190.767712 141.5821659 C199.34614246 150.15991985 207.92075834 158.74147923 216.49425936 167.32415986 C218.95493332 169.78695938 221.4163119 172.24905278 223.87784958 174.710989 C227.74954238 178.5836898 231.61866231 182.45894354 235.48584366 186.33614922 C236.90110553 187.75431925 238.31719981 189.17165917 239.73420715 190.58808517 C252.88330167 203.73382754 252.88330167 203.73382754 257.17107773 208.9989875 C259.00403147 211.10520038 259.00403147 211.10520038 261.46042132 212.98650795 C265.55689644 216.4328285 268.52719059 219.21216856 269.92157447 224.48474413 C270.25985166 228.70316529 270.28747884 232.82007213 270.20254517 237.04641724 C270.20691118 238.66786182 270.21567672 240.28929947 270.22843683 241.91069973 C270.25071697 246.3470349 270.2109191 250.78093959 270.16065621 255.2169652 C270.11736275 260.00756026 270.13209286 264.79802465 270.13967896 269.58876038 C270.14491576 277.88247125 270.11361326 286.17539381 270.05730057 294.4689064 C269.97593653 306.45970524 269.94997674 318.45012393 269.93742065 330.44116889 C269.91554884 349.8968676 269.84903922 369.3521464 269.75439453 388.80761719 C269.66256656 407.70375471 269.59180093 426.59977807 269.54931641 445.49609375 C269.54668917 446.66138179 269.54406194 447.82666982 269.54135509 449.02726962 C269.52830446 454.87333442 269.51566744 460.71940002 269.50323606 466.56546617 C269.39961398 515.04393428 269.2235222 563.52194663 269 612 C264.97577609 613.34632025 260.95112969 614.69136844 256.92612553 616.03535366 C255.56346259 616.49054296 254.20090588 616.94605045 252.8384676 617.40191174 C239.25397449 621.94672053 225.60701867 626.28041963 211.9375 630.5625 C207.00587725 632.1099695 202.07492902 633.65956958 197.14453125 635.2109375 C195.90326477 635.60147812 194.66199829 635.99201874 193.38311768 636.39439392 C184.45290158 639.21066844 175.54153223 642.08118324 166.63671875 644.9765625 C164.17391487 645.77532578 161.71110572 646.57407282 159.24829102 647.37280273 C155.70385485 648.52277857 152.16056982 649.67581664 148.62033081 650.83865356 C145.37691683 651.90396185 142.13026678 652.95880398 138.8828125 654.01171875 C137.91997849 654.33157745 136.95714447 654.65143616 135.96513367 654.98098755 C135.0860585 655.26400726 134.20698334 655.54702698 133.30126953 655.83862305 C132.53831573 656.08855515 131.77536194 656.33848724 130.98928833 656.59599304 C129 657 129 657 126 656 C127.68257433 651.97708864 129.37201672 647.95709358 131.0625 643.9375 C131.52849609 642.82310547 131.99449219 641.70871094 132.47460938 640.56054688 C135.27744302 633.90620033 138.21223801 627.3293217 141.28871155 620.7979126 C144.80868999 613.31285896 148.15130242 605.75033297 151.5 598.1875 C152.193923 596.62317086 152.88793526 595.0588813 153.58203125 593.49462891 C157.09384376 585.57673642 160.59593834 577.654555 164.09375 569.73046875 C164.42217896 568.98661926 164.75060791 568.24276978 165.08898926 567.47637939 C166.69021101 563.84843432 168.28847467 560.21923554 169.88085938 556.58740234 C172.44782612 550.73825052 175.02360667 544.8984026 177.75 539.12109375 C178.13929688 538.28658691 178.52859375 537.45208008 178.9296875 536.59228516 C179.60744563 535.14864797 180.29857701 533.71115086 181.0078125 532.28271484 C183.69366579 526.53141975 182.71713947 522.27294937 180.85180664 516.36083984 C180.37810829 515.05836003 179.89719486 513.75848796 179.41015625 512.4609375 C179.15036484 511.75112228 178.89057343 511.04130707 178.62290955 510.3099823 C178.06537544 508.78828697 177.50487067 507.2676773 176.94165039 505.74807739 C175.4373912 501.68765325 173.95639923 497.61873712 172.47265625 493.55078125 C172.1736441 492.73268478 171.87463196 491.91458832 171.56655884 491.07170105 C168.96104906 483.92979269 166.45863652 476.75642126 164 469.5625 C158.80969876 454.39769129 153.49035236 439.27944893 148.16595459 424.16131592 C146.77027623 420.19633822 145.38092161 416.22932182 144.00390625 412.2578125 C140.86435614 403.20471374 137.60787742 394.20060206 134.28738403 385.21228027 C134.0481723 384.56472778 133.80896057 383.91717529 133.5625 383.25 C133.20452835 382.28132996 133.20452835 382.28132996 132.83932495 381.29309082 C129.36917799 371.88942913 126.10092313 362.43579181 122.98852539 352.90722656 C120.50583914 345.3677303 117.78908982 337.93107148 115 330.5 C111.87542923 322.17351125 108.88580067 313.82914364 106.125 305.375 C102.98816308 295.77821435 99.60063706 286.29022208 96.125 276.8125 C91.91295165 265.32067055 87.81792029 253.79818602 83.85327148 242.21801758 C79.1572803 228.50846875 74.33784506 214.84283633 69.52354431 201.17448425 C67.56430196 195.60977835 65.61424193 190.04190976 63.66796875 184.47265625 C58.17306825 168.75995636 52.59271147 153.08822773 46.81420898 137.47753906 C43.69403523 129.00661389 40.7900448 120.48339041 37.98706055 111.90307617 C35.50506335 104.36490154 32.78857415 96.92969019 30 89.5 C26.41525267 79.94728058 23.02503297 70.35544256 19.86328125 60.65429688 C17.30464316 52.8134926 14.56593546 45.04210827 11.80566406 37.27062988 C10.46173437 33.48298804 9.12580394 29.69252708 7.7890625 25.90234375 C7.26175699 24.40818963 6.73441338 22.91404895 6.20703125 21.41992188 C3.8046875 14.61328125 1.40234375 7.80664062 -1 1 C-0.67 0.67 -0.34 0.34 0 0 Z " fill="#00A3E3" transform="translate(752,218)"/>
<path d="M0 0 C0.33 0 0.66 0 1 0 C1.00173625 1.01962769 1.0034725 2.03925537 1.00526136 3.08978087 C1.0819162 48.06896845 1.1597704 93.04815379 1.2436676 138.02732849 C1.24493928 138.70928562 1.24621096 139.39124276 1.24752118 140.09386526 C1.2751715 154.91793751 1.30303471 169.74200935 1.33111694 184.56608078 C1.34488901 191.83677839 1.35861409 199.10747609 1.37231445 206.37817383 C1.37436058 207.46340296 1.37436058 207.46340296 1.37644804 208.57055592 C1.42056609 231.98166618 1.46158632 255.39278061 1.50098413 278.80389925 C1.54151834 302.88050638 1.58520968 326.95710579 1.63282111 351.03370002 C1.63955875 354.44158931 1.64626064 357.84947868 1.65294075 361.25736809 C1.65425648 361.92802849 1.65557221 362.5986889 1.6569278 363.28967234 C1.67663895 373.3807751 1.69361185 383.4718801 1.70907402 393.56299019 C1.72671956 405.06466418 1.7476084 416.56632653 1.77266841 428.06798685 C1.78533747 433.92993188 1.79649775 439.79186898 1.80341911 445.65382385 C1.80980966 451.03668843 1.82073222 456.41952539 1.8350333 461.80237459 C1.83940587 463.73412731 1.84221437 465.66588446 1.84316199 467.59764189 C1.84915654 477.86886365 2.02175779 488.11696217 2.4512949 498.37997341 C2.51002208 499.81305729 2.51002208 499.81305729 2.56993568 501.27509237 C2.88657102 508.2043613 3.63340364 514.8792754 5 521.6875 C5.17789063 522.64720703 5.35578125 523.60691406 5.5390625 524.59570312 C6.2577894 528.42801932 7.02617955 532.22375268 8 536 C1.28733267 535.40162319 -4.68702203 533.18646582 -11.00390625 530.921875 C-12.73712379 530.30919769 -12.73712379 530.30919769 -14.50535583 529.68414307 C-18.19327016 528.37887203 -21.87789191 527.06457137 -25.5625 525.75 C-28.01346098 524.88091544 -30.46463091 524.01241991 -32.91601562 523.14453125 C-45.46005274 518.69949422 -45.46005274 518.69949422 -49.74928284 517.13237 C-51.97105103 516.35842889 -54.21752408 515.65290546 -56.48008728 515.00788879 C-66.49609367 511.98072166 -72.45733611 506.75626299 -79.49609375 499.41796875 C-80.62324029 498.27652049 -81.75235731 497.13701509 -82.88331604 495.99934387 C-85.8290369 493.02521754 -88.74635209 490.02470988 -91.6585083 487.01776123 C-94.61575477 483.9752886 -97.60163418 480.96118882 -100.58398438 477.94335938 C-117.79521157 460.48355466 -117.79521157 460.48355466 -122.32714844 455.14428711 C-127.30851056 449.35484798 -132.85340994 444.08887545 -138.28699684 438.72953415 C-140.37318181 436.67031892 -142.45468565 434.60647856 -144.53483582 432.54116821 C-150.44479969 426.67361125 -156.35727834 420.80867808 -162.28637695 414.96044922 C-165.92784198 411.36797939 -169.55906171 407.76541421 -173.18414879 404.15642166 C-174.55375169 402.79660342 -175.92697141 401.44041646 -177.3041172 400.08823776 C-187.94397674 389.63698597 -197.86517968 378.65007405 -204.375 365.0625 C-204.69533203 364.40048584 -205.01566406 363.73847168 -205.34570312 363.05639648 C-211.59065266 349.66504977 -215.6398378 332.16903874 -210.41015625 317.671875 C-207.59886366 312.34521535 -203.9309439 307.57940414 -200.3828125 302.7265625 C-197.06108401 298.15092399 -194.04828913 293.42415529 -191.0625 288.625 C-182.57972572 275.07594976 -173.54227404 261.89475482 -164.56860352 248.66845703 C-158.68098882 239.98447059 -152.83782582 231.28091111 -147.16256714 222.45643616 C-141.16383106 213.12933871 -135.04371252 203.88193212 -128.9375 194.625 C-128.29772217 193.65457764 -127.65794434 192.68415527 -126.9987793 191.68432617 C-119.02236881 179.58619119 -111.0223149 167.50491173 -102.96655273 155.45947266 C-95.76156009 144.67228528 -88.6332769 133.83469322 -81.5 123 C-73.02501167 110.12738901 -64.53285227 97.26793075 -55.96484375 84.45703125 C-48.12155416 72.7137634 -40.36729257 60.91182848 -32.60189819 49.11697388 C-22.92375912 34.41830898 -13.20694569 19.74676752 -3.41918945 5.12084961 C-2.27773631 3.41505166 -1.13850941 1.70776411 0 0 Z " fill="#0081C5" transform="translate(215,212)"/>
</svg>
