<?xml version="1.0" encoding="UTF-8"?>
<svg version="1.1" xmlns="http://www.w3.org/2000/svg" width="202" height="250">
<path d="M0 0 C25.74 0 51.48 0 78 0 C76.41467948 3.17064103 75.60764173 4.6424667 73.26071167 6.99097061 C72.70061968 7.5562781 72.14052769 8.12158558 71.56346321 8.7040236 C70.6404205 9.62037414 70.6404205 9.62037414 69.69873047 10.55523682 C69.04506437 11.21202289 68.39139828 11.86880897 67.71792412 12.54549766 C65.52242236 14.74898825 63.31982697 16.94524761 61.1171875 19.14160156 C59.54338717 20.7181113 57.97001278 22.29504634 56.39703369 23.87237549 C52.12084645 28.15769342 47.83834122 32.43664525 43.55442047 36.71423054 C39.07870041 41.18489593 34.60785201 45.6604288 30.13623047 50.13519287 C22.14638253 58.12891457 14.1514984 66.11757557 6.15463138 74.10427329 C-1.10156472 81.35152772 -8.35249233 88.60401865 -15.59960938 95.86035156 C-24.01182204 104.28325666 -32.42737083 112.7028062 -40.84789085 121.11740851 C-45.30678012 125.57317266 -49.76429027 130.03029386 -54.21832275 134.49091339 C-58.40309705 138.68144383 -62.5926929 142.86709197 -66.78614044 147.04894257 C-68.32865499 148.58880156 -69.86944971 150.13038545 -71.40843964 151.67376709 C-73.50063424 153.77138318 -75.59882002 155.86281029 -77.69873047 157.95269775 C-78.31409227 158.572521 -78.92945408 159.19234425 -79.56346321 159.83095002 C-83.77169967 164 -83.77169967 164 -86 164 C-87.2265625 162.71484375 -87.2265625 162.71484375 -88.625 160.9375 C-91.52441621 157.42693233 -94.70842892 154.52282701 -98.1640625 151.5703125 C-100.22669972 149.80609938 -102.19535545 148.03022512 -104 146 C-104 145.34 -104 144.68 -104 144 C-104.66 144 -105.32 144 -106 144 C-106 143.34 -106 142.68 -106 142 C-106.66 142 -107.32 142 -108 142 C-108 141.34 -108 140.68 -108 140 C-108.66 140 -109.32 140 -110 140 C-112.48817699 137.76064071 -114.58950855 135.84512945 -116.0625 132.8125 C-117.28453106 130.44990661 -118.60902642 130.04605094 -121 129 C-121.66 128.34 -122.32 127.68 -123 127 C-123 125.68 -123 124.36 -123 123 C-122.34 123 -121.68 123 -121 123 C-121 122.34 -121 121.68 -121 121 C-120.34 121 -119.68 121 -119 121 C-119 120.34 -119 119.68 -119 119 C-117.56640625 117.58984375 -117.56640625 117.58984375 -115.5625 115.9375 C-107.26939116 109.31188514 -107.26939116 109.31188514 -101 101 C-100.34 101 -99.68 101 -99 101 C-99 100.34 -99 99.68 -99 99 C-98.34 99 -97.68 99 -97 99 C-97 98.34 -97 97.68 -97 97 C-96.34 97 -95.68 97 -95 97 C-95 96.34 -95 95.68 -95 95 C-93.35546875 93.4140625 -93.35546875 93.4140625 -91.1875 91.625 C-88.93749143 89.76433718 -87.09649715 88.13127297 -85.36328125 85.7734375 C-84.68845703 84.89558594 -84.68845703 84.89558594 -84 84 C-83.34 84 -82.68 84 -82 84 C-82 83.34 -82 82.68 -82 82 C-81.34 82 -80.68 82 -80 82 C-80 81.34 -80 80.68 -80 80 C-79.34 80 -78.68 80 -78 80 C-78 79.34 -78 78.68 -78 78 C-77.34 78 -76.68 78 -76 78 C-76 77.34 -76 76.68 -76 76 C-75.34 76 -74.68 76 -74 76 C-74 75.34 -74 74.68 -74 74 C-72.49609375 72.51953125 -72.49609375 72.51953125 -70.4375 70.8125 C-65.2749426 66.41611719 -60.43805881 61.85705571 -56.1875 56.5625 C-55.465625 55.716875 -54.74375 54.87125 -54 54 C-53.34 54 -52.68 54 -52 54 C-52 53.34 -52 52.68 -52 52 C-50.35546875 50.4140625 -50.35546875 50.4140625 -48.1875 48.625 C-45.93749143 46.76433718 -44.09649715 45.13127297 -42.36328125 42.7734375 C-41.91339844 42.18820313 -41.46351562 41.60296875 -41 41 C-40.34 41 -39.68 41 -39 41 C-39 40.34 -39 39.68 -39 39 C-38.34 39 -37.68 39 -37 39 C-37 38.34 -37 37.68 -37 37 C-36.34 37 -35.68 37 -35 37 C-35 36.34 -35 35.68 -35 35 C-34.34 35 -33.68 35 -33 35 C-33 34.34 -33 33.68 -33 33 C-31.42578125 31.44921875 -31.42578125 31.44921875 -29.3125 29.6875 C-25.08875426 26.09170938 -21.09502988 22.64254482 -18 18 C-17.34 18 -16.68 18 -16 18 C-15.73195557 17.40074707 -15.46391113 16.80149414 -15.18774414 16.18408203 C-13.98622125 13.97466295 -12.86272731 12.71360073 -10.99609375 11.0546875 C-10.42052734 10.53519531 -9.84496094 10.01570312 -9.25195312 9.48046875 C-8.65318359 8.95066406 -8.05441406 8.42085937 -7.4375 7.875 C-3.1813004 4.37353696 -3.1813004 4.37353696 0 0 Z " fill="#4DC6FB" transform="translate(124,0)"/>
<path d="M0 0 C1.73444516 0.01868298 3.46894359 0.03290261 5.20346069 0.0428772 C9.73896496 0.08081389 14.27119684 0.17881351 18.80541992 0.28991699 C23.44404844 0.39275778 28.08321301 0.4380006 32.72265625 0.48828125 C41.80351056 0.59509233 50.88195053 0.76544999 59.9609375 0.9765625 C58.75712302 3.47017821 57.50665028 5.65799333 55.9609375 7.9765625 C55.3009375 7.9765625 54.6409375 7.9765625 53.9609375 7.9765625 C53.71988281 8.54503906 53.47882813 9.11351563 53.23046875 9.69921875 C51.71125662 12.42445158 49.88674769 14.24346589 47.6484375 16.4140625 C46.84664062 17.19523437 46.04484375 17.97640625 45.21875 18.78125 C44.47367188 19.50570312 43.72859375 20.23015625 42.9609375 20.9765625 C41.97967694 21.99538327 40.99999046 23.01572856 40.0234375 24.0390625 C37.9609375 25.9765625 37.9609375 25.9765625 35.9609375 25.9765625 C35.9609375 26.6365625 35.9609375 27.2965625 35.9609375 27.9765625 C35.3009375 27.9765625 34.6409375 27.9765625 33.9609375 27.9765625 C33.9609375 28.6365625 33.9609375 29.2965625 33.9609375 29.9765625 C33.3009375 29.9765625 32.6409375 29.9765625 31.9609375 29.9765625 C31.9609375 30.6365625 31.9609375 31.2965625 31.9609375 31.9765625 C31.3009375 31.9765625 30.6409375 31.9765625 29.9609375 31.9765625 C29.9609375 32.6365625 29.9609375 33.2965625 29.9609375 33.9765625 C29.3009375 33.9765625 28.6409375 33.9765625 27.9609375 33.9765625 C27.6515625 34.811875 27.6515625 34.811875 27.3359375 35.6640625 C25.99246997 37.92353061 24.90936048 38.9764281 22.8984375 40.6015625 C19.95269037 42.64775647 19.95269037 42.64775647 18.9609375 44.9765625 C18.3009375 44.9765625 17.6409375 44.9765625 16.9609375 44.9765625 C16.9609375 45.6365625 16.9609375 46.2965625 16.9609375 46.9765625 C16.3009375 46.9765625 15.6409375 46.9765625 14.9609375 46.9765625 C14.9609375 47.6365625 14.9609375 48.2965625 14.9609375 48.9765625 C14.3009375 48.9765625 13.6409375 48.9765625 12.9609375 48.9765625 C12.9609375 49.6365625 12.9609375 50.2965625 12.9609375 50.9765625 C12.3009375 50.9765625 11.6409375 50.9765625 10.9609375 50.9765625 C10.58195312 51.84474609 10.58195312 51.84474609 10.1953125 52.73046875 C6.80747317 58.89504981 0.39533062 63.62904801 -5.0390625 67.9765625 C-1.16386024 72.61382651 2.85702552 77.01141799 7.14990234 81.26318359 C7.73599274 81.84781372 8.32208313 82.43244385 8.92593384 83.03479004 C10.18519246 84.29027324 11.44560385 85.54460111 12.70707321 86.79786301 C14.70105246 88.77898939 16.69181237 90.76330147 18.68179321 92.7484436 C22.89702982 96.95231 27.11620917 101.15220544 31.3359375 105.3515625 C36.24764186 110.23968358 41.15772648 115.1294092 46.06364822 120.0233345 C48.02937259 121.98255549 49.99807152 123.93875436 51.96688843 125.89486694 C53.16085168 127.08520095 54.3546766 128.27567374 55.54833984 129.46630859 C56.09995789 130.01276031 56.65157593 130.55921204 57.21990967 131.1222229 C58.48603504 132.38816839 59.72660356 133.67960022 60.9609375 134.9765625 C60.9609375 135.3065625 60.9609375 135.6365625 60.9609375 135.9765625 C48.74579101 137.09790095 36.53243166 137.85911373 24.2734375 138.2890625 C23.37839005 138.32058788 22.48334259 138.35211327 21.56117249 138.38459396 C-17.23696873 139.59106588 -17.23696873 139.59106588 -33.11210632 125.32414246 C-40.63705841 117.84327422 -47.21893782 109.44276517 -52.91876221 100.5014801 C-53.97763677 98.8172604 -53.97763677 98.8172604 -56.0390625 97.9765625 C-56.0390625 97.3165625 -56.0390625 96.6565625 -56.0390625 95.9765625 C-56.6990625 95.9765625 -57.3590625 95.9765625 -58.0390625 95.9765625 C-59.484375 94.47265625 -59.484375 94.47265625 -61.1640625 92.4140625 C-63.62921011 89.50396086 -66.1226648 86.93337223 -69.0390625 84.4765625 C-72.54247339 81.51631609 -75.48444563 78.3098354 -78.3984375 74.7734375 C-80.12538474 72.8820191 -81.94918691 71.44856183 -84.0390625 69.9765625 C-83.4799737 66.73384744 -82.6258447 65.04598826 -80.0390625 62.9765625 C-79.3790625 62.9765625 -78.7190625 62.9765625 -78.0390625 62.9765625 C-78.0390625 62.3165625 -78.0390625 61.6565625 -78.0390625 60.9765625 C-77.3790625 60.9765625 -76.7190625 60.9765625 -76.0390625 60.9765625 C-75.79285156 60.40583008 -75.54664062 59.83509766 -75.29296875 59.24707031 C-73.83007253 56.5981344 -72.11260931 54.79107704 -69.9765625 52.6484375 C-69.17992188 51.84921875 -68.38328125 51.05 -67.5625 50.2265625 C-66.72976562 49.4015625 -65.89703125 48.5765625 -65.0390625 47.7265625 C-64.20632812 46.88609375 -63.37359375 46.045625 -62.515625 45.1796875 C-61.71898438 44.385625 -60.92234375 43.5915625 -60.1015625 42.7734375 C-59.37066406 42.04479492 -58.63976562 41.31615234 -57.88671875 40.56542969 C-56.0390625 38.9765625 -56.0390625 38.9765625 -54.0390625 38.9765625 C-53.76884277 38.38037109 -53.49862305 37.78417969 -53.22021484 37.16992188 C-52.04841434 34.99392854 -50.89652334 33.60255836 -49.140625 31.8828125 C-48.57859375 31.32722656 -48.0165625 30.77164063 -47.4375 30.19921875 C-46.55964844 29.34650391 -46.55964844 29.34650391 -45.6640625 28.4765625 C-45.0865625 27.90808594 -44.5090625 27.33960938 -43.9140625 26.75390625 C-42.79522764 25.65295231 -41.67327552 24.55515501 -40.54785156 23.4609375 C-39.25593575 22.18992648 -37.99913271 20.88339398 -36.75 19.5703125 C-35.0390625 17.9765625 -35.0390625 17.9765625 -33.0390625 17.9765625 C-32.5440625 16.4915625 -32.5440625 16.4915625 -32.0390625 14.9765625 C-31.3790625 14.9765625 -30.7190625 14.9765625 -30.0390625 14.9765625 C-29.66773697 14.1470961 -29.66773697 14.1470961 -29.28890991 13.3008728 C-22.24078053 0.19364101 -13.36151181 -0.42530699 0 0 Z " fill="#45C4FB" transform="translate(141.0390625,114.0234375)"/>
<path d="M0 0 C3.46526922 1.41157855 5.83373519 4.25335897 8.41836166 6.87812042 C9.05292786 7.51064224 9.68749405 8.14316406 10.34128952 8.79485321 C12.43713595 10.88769107 14.52204269 12.99107533 16.60683823 15.0949173 C18.05785442 16.54899044 19.50946152 18.00247415 20.96163559 19.45539093 C24.00242284 22.50078139 27.03823075 25.55101888 30.07021713 28.6051712 C33.96655811 32.52984476 37.87157141 36.44574194 41.77986908 40.35850525 C44.7759533 43.35873528 47.76919499 46.36178658 50.76138687 49.36589813 C52.20110654 50.81133399 53.64130823 52.25628988 55.08198929 53.70076752 C57.0886904 55.71430355 59.09195782 57.73118883 61.09414291 59.74921417 C61.69565674 60.35184586 62.29717056 60.95447754 62.91691208 61.57537079 C66.99746323 65.69898022 66.99746323 65.69898022 66.99746323 66.8136673 C-9.23191443 71.99362038 -9.23191443 71.99362038 -24.55881119 58.84732819 C-30.46332909 53.06718915 -35.55841416 46.33735252 -39.00253677 38.8136673 C-39.00253677 35.8136673 -39.00253677 35.8136673 -37.77109146 34.5167923 C-37.16168716 34.03726105 -36.55228287 33.5577298 -35.92441177 33.0636673 C-31.69438065 29.52311261 -27.86040817 25.69966133 -24.01816177 21.7511673 C-22.74088993 20.44771142 -21.46354495 19.14432719 -20.18613052 17.84101105 C-18.20299777 15.81434732 -16.22406387 13.78416433 -14.25497818 11.74384308 C-12.33313475 9.7557455 -10.3960406 7.78365529 -8.45566177 5.8136673 C-7.86706375 5.19612579 -7.27846573 4.57858429 -6.6720314 3.94232941 C-2.5220169 -0.23466946 -2.5220169 -0.23466946 0 0 Z " fill="#075AA0" transform="translate(135.00253677368164,183.18633270263672)"/>
<path d="M0 0 C3.18259851 1.40509099 5.31348466 3.06921342 7.75878906 5.53173828 C8.47923401 6.25233429 9.19967896 6.9729303 9.94195557 7.71536255 C10.70876648 8.49249603 11.47557739 9.26962952 12.265625 10.0703125 C13.05902283 10.86654022 13.85242065 11.66276794 14.66986084 12.48312378 C17.20130703 15.02575948 19.72570803 17.57526348 22.25 20.125 C23.96568617 21.85071753 25.68182662 23.57598355 27.3984375 25.30078125 C31.60424248 29.52863032 35.80428507 33.76213869 40 38 C35.83207173 42.96562741 31.5007433 47.6589933 26.921875 52.24609375 C26.26922668 52.90207047 25.61657837 53.55804718 24.94415283 54.23390198 C23.57735601 55.60572364 22.20923619 56.97622833 20.83984375 58.34545898 C18.73669241 60.45082159 16.64169627 62.56408709 14.546875 64.67773438 C13.21403047 66.01350874 11.88071417 67.34881258 10.546875 68.68359375 C9.91980652 69.31784775 9.29273804 69.95210175 8.64666748 70.60557556 C4.22885317 75 4.22885317 75 2 75 C1.67 75.66 1.34 76.32 1 77 C0.44570312 76.43410156 -0.10859375 75.86820312 -0.6796875 75.28515625 C-1.40414062 74.55167969 -2.12859375 73.81820312 -2.875 73.0625 C-3.59429687 72.33160156 -4.31359375 71.60070312 -5.0546875 70.84765625 C-6.87027192 68.94332001 -6.87027192 68.94332001 -9 68 C-9 67.34 -9 66.68 -9 66 C-9.66 66 -10.32 66 -11 66 C-12.4453125 64.49609375 -12.4453125 64.49609375 -14.125 62.4375 C-16.59014761 59.52739836 -19.0836023 56.95680973 -22 54.5 C-25.50341089 51.53975359 -28.44538313 48.3332729 -31.359375 44.796875 C-33.08632224 42.9054566 -34.91012441 41.47199933 -37 40 C-36.4409112 36.75728494 -35.5867822 35.06942576 -33 33 C-32.34 33 -31.68 33 -31 33 C-31 32.34 -31 31.68 -31 31 C-30.34 31 -29.68 31 -29 31 C-28.75378906 30.42926758 -28.50757812 29.85853516 -28.25390625 29.27050781 C-26.79101003 26.6215719 -25.07354681 24.81451454 -22.9375 22.671875 C-22.14085938 21.87265625 -21.34421875 21.0734375 -20.5234375 20.25 C-19.69070312 19.425 -18.85796875 18.6 -18 17.75 C-17.16726562 16.90953125 -16.33453125 16.0690625 -15.4765625 15.203125 C-14.67992188 14.4090625 -13.88328125 13.615 -13.0625 12.796875 C-12.33160156 12.06823242 -11.60070312 11.33958984 -10.84765625 10.58886719 C-9 9 -9 9 -7 9 C-6.773125 8.443125 -6.54625 7.88625 -6.3125 7.3125 C-4.64103234 4.36753316 -2.44723648 2.31843456 0 0 Z " fill="#02B5F7" transform="translate(94,144)"/>
<path d="M0 0 C0 3.50745529 -0.92963831 5.53556045 -2.3125 8.75 C-2.74175781 9.75546875 -3.17101562 10.7609375 -3.61328125 11.796875 C-4.07089844 12.85390625 -4.52851562 13.9109375 -5 15 C-5.37382813 16.21171875 -5.74765625 17.4234375 -6.1328125 18.671875 C-8.73890513 23.31704429 -11.63028765 24.02647598 -16.5625 25.5 C-17.34302734 25.76296875 -18.12355469 26.0259375 -18.92773438 26.296875 C-24.67634746 28.16182627 -24.67634746 28.16182627 -27 27 C-18.09 18.09 -9.18 9.18 0 0 Z " fill="#004A8A" transform="translate(124,192)"/>
<path d="M0 0 C0 3.52032428 -0.70351351 4.4385343 -3 7 C-3.66 7 -4.32 7 -5 7 C-5.24105469 7.56847656 -5.48210937 8.13695313 -5.73046875 8.72265625 C-7.24968088 11.44788908 -9.07418981 13.26690339 -11.3125 15.4375 C-12.11429688 16.21867187 -12.91609375 16.99984375 -13.7421875 17.8046875 C-14.48726562 18.52914062 -15.23234375 19.25359375 -16 20 C-16.98126056 21.01882077 -17.96094704 22.03916606 -18.9375 23.0625 C-21 25 -21 25 -23 25 C-23 25.66 -23 26.32 -23 27 C-23.66 27 -24.32 27 -25 27 C-25 27.66 -25 28.32 -25 29 C-25.66 29 -26.32 29 -27 29 C-27 29.66 -27 30.32 -27 31 C-27.66 31 -28.32 31 -29 31 C-29 31.66 -29 32.32 -29 33 C-29.66 33 -30.32 33 -31 33 C-31.20625 33.556875 -31.4125 34.11375 -31.625 34.6875 C-32.96846753 36.94696811 -34.05157702 37.9998656 -36.0625 39.625 C-39.00824713 41.67119397 -39.00824713 41.67119397 -40 44 C-40.66 44 -41.32 44 -42 44 C-42 44.66 -42 45.32 -42 46 C-42.66 46 -43.32 46 -44 46 C-44 46.66 -44 47.32 -44 48 C-44.66 48 -45.32 48 -46 48 C-46 48.66 -46 49.32 -46 50 C-46.66 50 -47.32 50 -48 50 C-48.38285156 50.87011719 -48.38285156 50.87011719 -48.7734375 51.7578125 C-52.52493014 58.61563663 -59.71627481 63.58802274 -66 68 C-64.34395113 63.70494237 -61.10451694 60.83846958 -57.89794922 57.67089844 C-57.27342865 57.04608582 -56.64890808 56.42127319 -56.00546265 55.77752686 C-53.9432435 53.71669931 -51.8740341 51.66304347 -49.8046875 49.609375 C-48.37221453 48.18063275 -46.94018293 46.75144785 -45.50857544 45.32183838 C-41.74168516 41.56257983 -37.96882707 37.80936643 -34.19470215 34.05737305 C-30.34363269 30.22677183 -26.49822729 26.39049405 -22.65234375 22.5546875 C-15.10710066 15.03088622 -7.55554189 7.51345798 0 0 Z " fill="#E2F4FE" transform="translate(200,115)"/>
<path d="M0 0 C0 3 0 3 -1.3125 4.625 C-3.08019897 7.11287263 -3.36219257 8.57471778 -4 11.5 C-4.98804823 14.77189742 -5.57268802 15.74894608 -8.56640625 17.5078125 C-11.38144269 18.55748711 -14.0450779 19.45433363 -17 20 C-17.66 19.67 -18.32 19.34 -19 19 C-12.73 12.73 -6.46 6.46 0 0 Z " fill="#003C70" transform="translate(116,200)"/>
<path d="M0 0 C0 3.59947819 -0.83412607 4.25100617 -3 7 C-3.2475 7.70125 -3.495 8.4025 -3.75 9.125 C-5.754617 12.13192549 -8.61518124 12.24781805 -12 13 C-8.19524578 8.43969176 -4.25030379 4.14910608 0 0 Z " fill="#002D57" transform="translate(109,207)"/>
<path d="M0 0 C1 2 1 2 0.22265625 4.3828125 C-0.16019531 5.28773438 -0.54304688 6.19265625 -0.9375 7.125 C-1.31777344 8.03507813 -1.69804688 8.94515625 -2.08984375 9.8828125 C-2.39019531 10.58148438 -2.69054687 11.28015625 -3 12 C-3.66 12 -4.32 12 -5 12 C-4.37343743 7.73937456 -3.1323664 3.1323664 0 0 Z " fill="#00447D" transform="translate(115,203)"/>
</svg>
