<?xml version="1.0" encoding="UTF-8"?>
<svg version="1.1" xmlns="http://www.w3.org/2000/svg" width="200" height="200">
<path d="M0 0 C8.51465777 7.76512804 15.5128505 19.42510021 17 31 C16.98082842 33.03989056 16.91565593 35.07962264 16.81640625 37.1171875 C15.78985227 48.62404647 15.78985227 48.62404647 19.54589844 59.03271484 C23.54773862 62.26651495 28.16701732 64.13669478 32.90478516 66.05078125 C43.62393721 70.90699929 51.34003257 82.776114 55.95703125 93.12890625 C61.06194753 107.18176568 61.18048927 124.29125122 55 138 C48.00226291 152.46340796 36.50647632 162.70057641 21.45703125 168.22265625 C5.30294224 173.33340937 -9.92509454 171.35685802 -25 164 C-28.14666901 162.14524071 -31.24656453 160.249173 -34.30859375 158.2578125 C-36.85705617 156.82879133 -36.85705617 156.82879133 -39.33203125 157.03125 C-43.95284803 158.70908684 -48.1314466 161.18738417 -52.41015625 163.5859375 C-66.20751532 171.14340986 -81.72213876 173.45507099 -97 169 C-112.39846194 163.88099583 -124.48855646 154.46623916 -131.875 139.9375 C-138.28891417 126.91576262 -139.39152074 110.95475809 -135.4375 96.9375 C-128.25454153 77.56603708 -114.92069983 66.96034992 -97 58 C-96.59529851 55.49373456 -96.59529851 55.49373456 -96.5078125 52.453125 C-96.4449707 51.30384521 -96.38212891 50.15456543 -96.31738281 48.97045898 C-96.25389648 47.74270752 -96.19041016 46.51495605 -96.125 45.25 C-94.9009277 26.06578933 -90.41619336 11.52799187 -76 -2 C-52.66020349 -20.25974947 -22.32286447 -18.94687571 0 0 Z M-61.625 25 C-67.52469672 33.8030175 -68.86272865 46.69750079 -67 57 C-64.70523247 60.31898581 -61.60575428 61.35900482 -58 63 C-56.52645502 63.86291453 -55.06234082 64.74203752 -53.60546875 65.6328125 C-52.00855551 66.58978263 -50.41089086 67.54549993 -48.8125 68.5 C-48.0405127 68.97099121 -47.26852539 69.44198242 -46.47314453 69.92724609 C-42.08704443 72.49341736 -42.08704443 72.49341736 -37.16015625 72.60546875 C-36.11730469 72.07566406 -35.07445312 71.54585937 -34 71 C-33.16734619 70.65984863 -32.33469238 70.31969727 -31.47680664 69.96923828 C-24.43210887 67.02981017 -17.1949012 63.72780538 -12 58 C-8.51119016 49.21646383 -10.33942673 38.45767816 -13.94921875 29.97265625 C-15.70283951 26.22743871 -17.82977391 23.70629057 -21 21 C-21.7425 20.29875 -22.485 19.5975 -23.25 18.875 C-36.2042828 10.04253445 -51.64939047 13.5993034 -61.625 25 Z M-46.625 78.5 C-47.23601562 78.83386719 -47.84703125 79.16773437 -48.4765625 79.51171875 C-49.98641801 80.33742098 -51.49347848 81.16823037 -53 82 C-54.0822795 90.03978087 -54.0822795 90.03978087 -53 98 C-49.55840349 101.71473909 -45.87156985 103.67839407 -41 105 C-35.96314469 104.64385872 -31.96301658 103.22568256 -27.83984375 100.3359375 C-24.47960234 96.06964374 -24.41537947 91.04025519 -24.89453125 85.81640625 C-26.26059812 81.10033794 -27.6921961 79.95720808 -31.875 77.5 C-38.41873306 74.46791565 -40.51844582 75.12051809 -46.625 78.5 Z M-88.8125 86.5625 C-89.75017212 87.1205835 -89.75017212 87.1205835 -90.70678711 87.68994141 C-99.87041052 93.24430466 -105.30515719 98.48296593 -108.6328125 109 C-109.97376763 115.84743046 -107.95735093 123.31021114 -104.7421875 129.37109375 C-99.92150165 136.33869706 -93.29459078 140.37070538 -85 142 C-77.84241095 142.71575891 -72.53906354 140.80562567 -66 138 C-64.97455078 137.60248535 -63.94910156 137.2049707 -62.89257812 136.79541016 C-57.93690018 134.49567072 -54.7041115 132.78629586 -52.64550781 127.5637207 C-51.78068438 123.36543152 -51.69728769 119.21024302 -51.75 114.9375 C-51.73894226 113.82507935 -51.73894226 113.82507935 -51.72766113 112.69018555 C-51.75019985 106.10530267 -52.0911006 100.35391158 -56.34375 95.10986328 C-62.76206678 89.90684271 -70.18629805 86.5729794 -78 84 C-78.71019287 83.764021 -79.42038574 83.52804199 -80.15209961 83.28491211 C-83.45275896 82.7760114 -86.07925691 84.90882801 -88.8125 86.5625 Z M-3.59375 85.9921875 C-4.70621094 86.61480469 -5.81867188 87.23742187 -6.96484375 87.87890625 C-7.83471924 88.37028076 -7.83471924 88.37028076 -8.72216797 88.87158203 C-10.49000391 89.86935815 -12.26222323 90.85897146 -14.03515625 91.84765625 C-19.87631565 94.93446571 -19.87631565 94.93446571 -25 99 C-26.59178843 108.33640623 -28.83007044 124.10307819 -23.43554688 132.40869141 C-18.99851444 136.43371369 -13.69895866 138.41043308 -8 140 C-7.34370605 140.20367187 -6.68741211 140.40734375 -6.01123047 140.6171875 C2.99310303 143.35753268 9.59267342 141.82632659 18 138 C24.31895756 134.01630936 28.04713119 128.11712188 30 121 C30.79830392 112.99839564 30.91310022 105.6446513 26 99 C25.30648437 98.04867187 24.61296875 97.09734375 23.8984375 96.1171875 C20.66491364 92.28831308 16.63857818 90.05406171 12.3125 87.625 C11.54099609 87.17511719 10.76949219 86.72523437 9.97460938 86.26171875 C4.00943925 82.83369959 2.61768736 82.51217988 -3.59375 85.9921875 Z " fill="#21A6E4" transform="translate(139,22)"/>
<path d="M0 0 C0.33 0 0.66 0 1 0 C1 4.95 1 9.9 1 15 C3.041875 13.989375 5.08375 12.97875 7.1875 11.9375 C13.22648583 8.94850702 13.22648583 8.94850702 16.69921875 9.1796875 C18.94190614 9.97928742 20.66153185 10.85113071 22.625 12.1875 C26.53444634 14.73587984 30.54267057 16.9774226 34.66015625 19.171875 C37.3041506 20.61911401 39.90099244 22.10944484 42.49609375 23.640625 C43.6864624 24.33152222 43.6864624 24.33152222 44.90087891 25.03637695 C46.48503391 25.95675208 48.06187479 26.8898559 49.63037109 27.83666992 C53.30486398 29.95032694 55.21660784 31.04750449 59.54296875 30.78515625 C60.35378906 30.52605469 61.16460937 30.26695313 62 30 C61.375 32.4375 61.375 32.4375 60 35 C58.00994193 35.38830401 56.0064731 35.70814937 54 36 C51.57747615 37.20922619 49.274001 38.54809124 46.953125 39.94140625 C45 41 45 41 43 41 C43 46.28 43 51.56 43 57 C44.485 57.495 44.485 57.495 46 58 C44.515 58.495 44.515 58.495 43 59 C43.01625257 65.49672164 43.07095637 71.99229828 43.15258789 78.48852539 C43.17580542 80.69906184 43.19017237 82.90970951 43.19555664 85.12036133 C43.20481861 88.29579272 43.24574963 91.46946582 43.29296875 94.64453125 C43.2890361 95.63524124 43.28510345 96.62595123 43.28105164 97.64668274 C43.33546158 100.19703211 43.4197089 102.51583832 44 105 C46.28067792 107.13103455 46.28067792 107.13103455 49 108 C49.66 108.66 50.32 109.32 51 110 C52.485 110.495 52.485 110.495 54 111 C54.33 112.65 54.66 114.3 55 116 C37.93146296 126.02267922 21.8503383 133.45377849 1.55859375 128.74609375 C-13.19854461 124.44286715 -26.1502747 116.06938881 -33.9765625 102.59765625 C-41.59017241 88.20401532 -43.92318515 71.83954262 -39.4375 55.9375 C-32.25454153 36.56603708 -18.92069983 25.96034992 -1 17 C-0.67 11.39 -0.34 5.78 0 0 Z M7.1875 45.5625 C6.24982788 46.1205835 6.24982788 46.1205835 5.29321289 46.68994141 C-3.87041052 52.24430466 -9.30515719 57.48296593 -12.6328125 68 C-13.97376763 74.84743046 -11.95735093 82.31021114 -8.7421875 88.37109375 C-3.92150165 95.33869706 2.70540922 99.37070538 11 101 C18.15758905 101.71575891 23.46093646 99.80562567 30 97 C31.02544922 96.60248535 32.05089844 96.2049707 33.10742188 95.79541016 C38.06309982 93.49567072 41.2958885 91.78629586 43.35449219 86.5637207 C44.21931562 82.36543152 44.30271231 78.21024302 44.25 73.9375 C44.26105774 72.82507935 44.26105774 72.82507935 44.27233887 71.69018555 C44.24980015 65.10530267 43.9088994 59.35391158 39.65625 54.10986328 C33.23793322 48.90684271 25.81370195 45.5729794 18 43 C17.28980713 42.764021 16.57961426 42.52804199 15.84790039 42.28491211 C12.54724104 41.7760114 9.92074309 43.90882801 7.1875 45.5625 Z " fill="#2591E5" transform="translate(43,63)"/>
<path d="M0 0 C0.66 0.33 1.32 0.66 2 1 C-2.95 5.95 -7.9 10.9 -13 16 C-13 11.93645091 -11.47015238 10.94829419 -8.75 8 C-7.96109375 7.13375 -7.1721875 6.2675 -6.359375 5.375 C-4.3351828 3.33740256 -2.34982916 1.63841299 0 0 Z " fill="#3C45A0" transform="translate(67,17)"/>
</svg>
