<?xml version="1.0" encoding="UTF-8"?>
<svg version="1.1" xmlns="http://www.w3.org/2000/svg" width="225" height="225">
<path d="M0 0 C74.25 0 148.5 0 225 0 C225 74.25 225 148.5 225 225 C150.75 225 76.5 225 0 225 C0 150.75 0 76.5 0 0 Z " fill="#FDFEFE" transform="translate(0,0)"/>
<path d="M0 0 C2.94113986 0.07092781 4.46025015 0.23012507 7.125 1.5625 C10.25767166 5.2172836 9.7729087 9.65828703 9.83032227 14.28417969 C9.84022186 14.9772673 9.85012146 15.67035492 9.86032104 16.38444519 C9.89182419 18.66772078 9.91664902 20.95101714 9.94140625 23.234375 C9.96198545 24.820501 9.98298218 26.40662164 10.00437927 27.99273682 C10.05950021 32.16180061 10.10895337 36.33091308 10.15722656 40.50006104 C10.20751456 44.75659503 10.26316249 49.01305858 10.31835938 53.26953125 C10.42581887 61.61712789 10.5272908 69.96478357 10.625 78.3125 C11.77234619 78.30361755 12.91969238 78.29473511 14.10180664 78.2855835 C24.93034169 78.20439088 35.75881473 78.14448326 46.58758545 78.10525131 C52.15438555 78.08440347 57.72093931 78.05613672 63.28759766 78.01074219 C68.66277478 77.96718494 74.03771539 77.94334181 79.41305542 77.93299103 C81.46072104 77.92561742 83.50837416 77.91121848 85.55593872 77.88957977 C88.43080309 77.86041472 91.30469827 77.8565495 94.1796875 77.85839844 C95.02054398 77.84401733 95.86140045 77.82963623 96.72773743 77.81481934 C103.05326494 77.85865211 108.41364235 79.34682695 113.15402222 83.72454453 C117.36453467 88.49650239 119.12984748 92.8075713 118.9375 99.203125 C118.00493254 105.49795532 114.13260407 110.25249667 109.89453125 114.76953125 C108.39544336 116.40356196 108.39544336 116.40356196 107.625 119.3125 C106.48890077 120.44859923 105.34873533 121.58084746 104.19140625 122.6953125 C100.70051241 126.29937746 97.71686119 130.36789198 94.625 134.3125 C93.72030607 135.46113759 92.81534594 136.60956556 91.91015625 137.7578125 C90.96083865 138.96346384 90.01162076 140.16919369 89.0625 141.375 C88.59384521 141.96998291 88.12519043 142.56496582 87.64233398 143.17797852 C85.55109978 145.83831591 83.47784703 148.50721492 81.4375 151.20703125 C80.81875 152.02558594 80.2 152.84414062 79.5625 153.6875 C78.77166016 154.75097656 78.77166016 154.75097656 77.96484375 155.8359375 C77.52269531 156.32320312 77.08054688 156.81046875 76.625 157.3125 C75.965 157.3125 75.305 157.3125 74.625 157.3125 C74.35816406 158.05242187 74.09132812 158.79234375 73.81640625 159.5546875 C72.64875558 162.25751168 71.39951906 164.15316897 69.5625 166.4375 C68.94117188 167.21480469 68.31984375 167.99210938 67.6796875 168.79296875 C66.66261719 170.04013672 66.66261719 170.04013672 65.625 171.3125 C64.90570313 172.19550781 64.18640625 173.07851562 63.4453125 173.98828125 C61.92270795 175.85070585 60.39791819 177.71134581 58.87109375 179.5703125 C54.02516386 185.48656081 49.27441618 191.47736313 44.55297852 197.49316406 C43.60363443 198.70268913 42.65360541 199.91167691 41.70288086 201.12011719 C39.57620829 203.82335761 37.45662986 206.53071466 35.35546875 209.25390625 C26.34615931 220.81269523 26.34615931 220.81269523 20.5625 221.875 C16.8086056 221.15616916 15.29018179 220.05004091 12.625 217.3125 C12.06910423 214.63985584 11.86114095 212.5686382 11.84765625 209.8828125 C11.81273827 208.72508835 11.81273827 208.72508835 11.77711487 207.54397583 C11.70179345 204.80020208 11.66417189 202.05701955 11.625 199.3125 C11.57447138 197.07255174 11.52212642 194.83264395 11.46826172 192.59277344 C11.29862487 185.12482328 11.17880165 177.65643924 11.0625 170.1875 C11.01919914 167.57160928 10.97558166 164.95572379 10.93164062 162.33984375 C10.82578104 155.99745133 10.72381353 149.65500591 10.625 143.3125 C9.50493057 143.30663376 8.38486115 143.30076752 7.23085022 143.29472351 C-3.34739384 143.23740151 -13.9254342 143.16459041 -24.50347042 143.07678509 C-29.94118187 143.03214136 -35.37881944 142.99287196 -40.81665039 142.96606445 C-46.06876847 142.93997175 -51.32060129 142.89952702 -56.57254219 142.84931374 C-58.57185875 142.83268536 -60.5712246 142.82114608 -62.57060051 142.81488609 C-65.38062001 142.80520111 -68.18991633 142.77708955 -70.99975586 142.74487305 C-72.22759544 142.74702568 -72.22759544 142.74702568 -73.48023987 142.7492218 C-80.62057523 142.63415796 -87.43518253 141.41636228 -92.8125 136.4375 C-96.78232796 131.93982788 -97.91935072 127.71043529 -97.7421875 121.765625 C-96.50653172 113.51039277 -91.16081407 107.60316624 -85.625 101.73046875 C-82.99366233 98.90269441 -80.66024528 95.92849614 -78.3203125 92.859375 C-75.87032905 89.65176615 -73.37290033 86.48284722 -70.875 83.3125 C-67.90021157 79.53320277 -64.93462241 75.7481291 -62 71.9375 C-58.22573485 67.07068441 -54.31755153 62.31363955 -50.42553711 57.54101562 C-45.83504438 51.90211359 -41.33175178 46.19930024 -36.8515625 40.47265625 C-33.39610687 36.05647325 -29.88482766 31.68550409 -26.375 27.3125 C-24.89899123 25.46866462 -23.42366628 23.6242837 -21.94848633 21.77978516 C-20.9055922 20.47588432 -19.86246345 19.1721711 -18.8190918 17.86865234 C-16.508479 14.98176896 -14.20040055 12.09301142 -11.8984375 9.19921875 C-10.83496094 7.86310547 -10.83496094 7.86310547 -9.75 6.5 C-9.13898438 5.73042969 -8.52796875 4.96085938 -7.8984375 4.16796875 C-5.24303274 0.93382193 -4.17892492 0.02082521 0 0 Z " fill="#32B279" transform="translate(102.375,2.6875)"/>
<path d="M0 0 C2.94113986 0.07092781 4.46025015 0.23012507 7.125 1.5625 C9.98155308 4.89514526 9.75564187 8.67973647 9.78321838 12.91864014 C9.7930072 14.06004959 9.80279602 15.20145905 9.81288147 16.37745667 C9.81863693 17.62542526 9.8243924 18.87339386 9.83032227 20.15917969 C9.84022186 21.47649582 9.85012146 22.79381195 9.86032104 24.15104675 C9.88733376 27.76017958 9.90836296 31.36932543 9.92832303 34.97850323 C9.95020502 38.75150101 9.97758288 42.52445881 10.00437927 46.29742432 C10.05427624 53.44066982 10.09922618 60.58393755 10.14240164 67.7272265 C10.19179962 75.86020177 10.24670825 83.99313691 10.30208123 92.12607336 C10.41585529 108.85484524 10.52270428 125.58365391 10.625 142.3125 C-1.08445159 142.38214428 -12.79385355 142.43538452 -24.50347042 142.46793652 C-29.94127174 142.48356327 -35.37893088 142.50474692 -40.81665039 142.53881836 C-46.06862846 142.57151842 -51.32047014 142.58937549 -56.57254219 142.59713173 C-58.57191679 142.60265614 -60.57128429 142.61344387 -62.57060051 142.62969017 C-65.38048048 142.65160597 -68.18980358 142.65446103 -70.99975586 142.65307617 C-72.22759544 142.66925491 -72.22759544 142.66925491 -73.48023987 142.6857605 C-80.63591162 142.64783291 -87.42516943 141.42438615 -92.8125 136.4375 C-96.78232796 131.93982788 -97.91935072 127.71043529 -97.7421875 121.765625 C-96.50653172 113.51039277 -91.16081407 107.60316624 -85.625 101.73046875 C-82.99366233 98.90269441 -80.66024528 95.92849614 -78.3203125 92.859375 C-75.87032905 89.65176615 -73.37290033 86.48284722 -70.875 83.3125 C-67.90021157 79.53320277 -64.93462241 75.7481291 -62 71.9375 C-58.22573485 67.07068441 -54.31755153 62.31363955 -50.42553711 57.54101562 C-45.83504438 51.90211359 -41.33175178 46.19930024 -36.8515625 40.47265625 C-33.39610687 36.05647325 -29.88482766 31.68550409 -26.375 27.3125 C-24.89899123 25.46866462 -23.42366628 23.6242837 -21.94848633 21.77978516 C-20.9055922 20.47588432 -19.86246345 19.1721711 -18.8190918 17.86865234 C-16.508479 14.98176896 -14.20040055 12.09301142 -11.8984375 9.19921875 C-10.83496094 7.86310547 -10.83496094 7.86310547 -9.75 6.5 C-9.13898438 5.73042969 -8.52796875 4.96085938 -7.8984375 4.16796875 C-5.24303274 0.93382193 -4.17892492 0.02082521 0 0 Z " fill="#3FCD90" transform="translate(102.375,2.6875)"/>
<path d="M0 0 C0.33 0 0.66 0 1 0 C1.06058594 0.78503906 1.12117188 1.57007813 1.18359375 2.37890625 C1.71338929 9.05091079 1.71338929 9.05091079 2.5625 15.6875 C2.90567324 18.28581171 3.00390852 20.47256778 2.9375 23.0625 C2.8377171 29.44860547 3.99804361 35.71093444 5 42 C6.485 41.505 6.485 41.505 8 41 C11.1875 41.9375 11.1875 41.9375 14 43 C14 41.68 14 40.36 14 39 C15.65 39.33 17.3 39.66 19 40 C19.12375 39.4225 19.2475 38.845 19.375 38.25 C20.00648824 35.97664233 20.88858191 34.0746471 22 32 C22.99 32 23.98 32 25 32 C25 31.34 25 30.68 25 30 C24.01 29.67 23.02 29.34 22 29 C22.33 28.34 22.66 27.68 23 27 C23.99 27 24.98 27 26 27 C26.33 26.34 26.66 25.68 27 25 C28.32 25 29.64 25 31 25 C27.25759093 33.47728021 19.67302662 42.83546285 12 48 C8.17602257 48.76479549 6.708935 48.4213581 3.37109375 46.4375 C0.25432359 43.23343974 0.22117379 40.63117769 0.1875 36.375 C0.16308838 35.61461426 0.13867676 34.85422852 0.11352539 34.07080078 C0.04112391 31.38001173 0.0161288 28.69171709 0 26 C-0.00837891 24.88238281 -0.01675781 23.76476562 -0.02539062 22.61328125 C-0.0706034 15.07507807 -0.0569342 7.53808854 0 0 Z M23 25 C23.66 25 24.32 25 25 25 C25 25.66 25 26.32 25 27 C24.34 27 23.68 27 23 27 C23 26.34 23 25.68 23 25 Z " fill="#3BB57F" transform="translate(114,176)"/>
<path d="M0 0 C0.66 0 1.32 0 2 0 C2 0.66 2 1.32 2 2 C3.65 2 5.3 2 7 2 C7.33 1.34 7.66 0.68 8 0 C8 0.99 8 1.98 8 3 C11.87444569 4.2914819 15.56241833 4.1773349 19.60229492 4.20532227 C20.91968407 4.22017166 20.91968407 4.22017166 22.26368713 4.23532104 C25.1692535 4.26693119 28.07483622 4.29169161 30.98046875 4.31640625 C32.99400764 4.33697619 35.00754222 4.35797268 37.02107239 4.37937927 C42.32287097 4.43459577 47.62470849 4.48400695 52.92657471 4.53222656 C58.33585072 4.58244463 63.74507013 4.63812911 69.15429688 4.69335938 C79.7694829 4.8009358 90.38471806 4.90238196 101 5 C101.495 5.99 101.495 5.99 102 7 C90.29054841 7.06964428 78.58114645 7.12288452 66.87152958 7.15543652 C61.43372826 7.17106327 55.99606912 7.19224692 50.55834961 7.22631836 C45.30637154 7.25901842 40.05452986 7.27687549 34.80245781 7.28463173 C32.80308321 7.29015614 30.80371571 7.30094387 28.80439949 7.31719017 C25.99451952 7.33910597 23.18519642 7.34196103 20.37524414 7.34057617 C19.55668442 7.351362 18.73812469 7.36214783 17.89476013 7.3732605 C12.39394813 7.34410425 6.86952595 6.7471131 2 4 C0.74755955 1.89195538 0.74755955 1.89195538 0 0 Z " fill="#75CEA8" transform="translate(11,138)"/>
<path d="M0 0 C0.99 0.33 1.98 0.66 3 1 C2.57847656 1.47050781 2.15695313 1.94101563 1.72265625 2.42578125 C1.17480469 3.04839844 0.62695312 3.67101562 0.0625 4.3125 C-0.48277344 4.92738281 -1.02804688 5.54226562 -1.58984375 6.17578125 C-3.20081559 8.05241958 -3.20081559 8.05241958 -4 11 C-5.13479719 12.13479719 -6.27362367 13.26578194 -7.4296875 14.37890625 C-14.66894041 21.85226435 -20.68031591 30.73779006 -27 39 C-27.99 38.01 -28.98 37.02 -30 36 C-27.79038253 33.45893991 -26.26011642 32.69378511 -23 32 C-22.93941406 31.40832031 -22.87882813 30.81664062 -22.81640625 30.20703125 C-22.37987629 26.09021792 -21.91328654 22.04455467 -21 18 C-19.68 17.67 -18.36 17.34 -17 17 C-17 17.66 -17 18.32 -17 19 C-14.46326712 17.6446674 -14.46326712 17.6446674 -12 16 C-12 15.34 -12 14.68 -12 14 C-12.66 13.67 -13.32 13.34 -14 13 C-13.34 11.68 -12.68 10.36 -12 9 C-11.67 9.33 -11.34 9.66 -11 10 C-10.01 9.67 -9.02 9.34 -8 9 C-7.34 9 -6.68 9 -6 9 C-6 7.68 -6 6.36 -6 5 C-5.34 5 -4.68 5 -4 5 C-4 4.34 -4 3.68 -4 3 C-4.66 2.67 -5.32 2.34 -6 2 C-2.25 0.875 -2.25 0.875 0 2 C0 1.34 0 0.68 0 0 Z " fill="#48C992" transform="translate(214,111)"/>
<path d="M0 0 C4.12028918 3.24235831 7.26758049 7.13140106 8.61328125 12.26953125 C9.09785264 18.27821652 8.29743959 21.90121457 5.61328125 27.26953125 C5.48953125 26.63015625 5.36578125 25.99078125 5.23828125 25.33203125 C5.03203125 24.65140625 4.82578125 23.97078125 4.61328125 23.26953125 C3.95328125 22.93953125 3.29328125 22.60953125 2.61328125 22.26953125 C3.27328125 21.60953125 3.93328125 20.94953125 4.61328125 20.26953125 C4.88968508 15.38639699 4.83044549 10.70385973 2.61328125 6.26953125 C-1.26590231 4.95207268 -4.2704774 4.26953125 -8.38671875 4.26953125 C-8.38671875 3.27953125 -8.38671875 2.28953125 -8.38671875 1.26953125 C-11.94743187 0.22070734 -15.44199772 -0.03433828 -19.13671875 -0.29296875 C-20.3071875 -0.37675781 -21.47765625 -0.46054688 -22.68359375 -0.546875 C-23.575625 -0.60746094 -24.46765625 -0.66804688 -25.38671875 -0.73046875 C-25.38671875 -1.06046875 -25.38671875 -1.39046875 -25.38671875 -1.73046875 C-17.19168914 -3.62875244 -7.4354027 -4.50582219 0 0 Z " fill="#4EC090" transform="translate(212.38671875,83.73046875)"/>
<path d="M0 0 C15.84 0.33 31.68 0.66 48 1 C44.01372586 2.99313707 42.95148294 3.18777577 38.75 3 C32.26555877 2.86474172 26.15377536 3.68703718 19.76171875 4.66015625 C15.83899468 5.01454565 12.84354677 4.71103129 9 4 C8.67 4.99 8.34 5.98 8 7 C7.236875 6.79375 6.47375 6.5875 5.6875 6.375 C2.78114056 5.66608797 2.78114056 5.66608797 0 8 C0 5.36 0 2.72 0 0 Z " fill="#2C865F" transform="translate(112,81)"/>
<path d="M0 0 C0.33 0 0.66 0 1 0 C1.01030746 0.66160126 1.02061493 1.32320251 1.03123474 2.00485229 C1.14064862 8.98231262 1.25511058 15.959678 1.37231445 22.93701172 C1.4152377 25.53009018 1.45693602 28.12318926 1.49731445 30.71630859 C1.61205197 38.05667672 1.74657553 45.39604308 1.92205811 52.73522949 C1.97174782 54.8165942 2.01760498 56.89805642 2.05841064 58.97961426 C2.11337725 61.53185379 2.19383189 64.08165425 2.28515625 66.6328125 C2.29711533 67.3542746 2.3090744 68.07573669 2.32139587 68.81906128 C2.46564212 72.01888968 2.62120189 73.61500715 4.91088867 75.94213867 C8.3564348 77.68685661 11.18637699 77.19068115 15 77 C14.505 77.99 14.505 77.99 14 79 C5.92071611 79.62148338 5.92071611 79.62148338 2.5 77.3125 C-0.37594812 72.87874665 -0.12282425 68.16745782 -0.11352539 63.0065918 C-0.11374443 61.98137169 -0.11374443 61.98137169 -0.1139679 60.93544006 C-0.11327462 58.68999999 -0.10550974 56.44464423 -0.09765625 54.19921875 C-0.09578999 52.63694809 -0.09436707 51.07467685 -0.09336853 49.5124054 C-0.08955972 45.41069916 -0.07974346 41.30902861 -0.06866455 37.20733643 C-0.0584152 33.01778649 -0.05386337 28.82823075 -0.04882812 24.63867188 C-0.03811967 16.42576491 -0.02106297 8.2128869 0 0 Z " fill="#DAF7EC" transform="translate(113,146)"/>
<path d="M0 0 C0.33 0 0.66 0 1 0 C1.06058594 0.78503906 1.12117188 1.57007813 1.18359375 2.37890625 C1.71338929 9.05091079 1.71338929 9.05091079 2.5625 15.6875 C2.903406 18.26864546 3.00427587 20.42912893 2.9375 23 C2.83892883 28.68755648 3.80175438 34.23498447 4.66015625 39.83984375 C5 43 5 43 4 45 C4.66 45 5.32 45 6 45 C5.67 45.66 5.34 46.32 5 47 C3.046875 45.97265625 3.046875 45.97265625 1 44 C0.51346313 41.35211663 0.30136555 39.10205114 0.25 36.4375 C0.22107666 35.67260254 0.19215332 34.90770508 0.16235352 34.11962891 C-0.20414518 22.7548273 -0.08586616 11.36867974 0 0 Z " fill="#49A97F" transform="translate(114,176)"/>
<path d="M0 0 C0.66 0.66 1.32 1.32 2 2 C0.38405168 4.04119788 -1.2856382 6.04072937 -3 8 C-3.66 8 -4.32 8 -5 8 C-5.226875 8.70125 -5.45375 9.4025 -5.6875 10.125 C-7.31656867 13.69343613 -9.40640731 16.06514511 -12 19 C-12.66 18.34 -13.32 17.68 -14 17 C-14 14.33333333 -14 11.66666667 -14 9 C-11.36 8.34 -8.72 7.68 -6 7 C-5.67 5.02 -5.34 3.04 -5 1 C-2.625 0.375 -2.625 0.375 0 0 Z " fill="#47C28D" transform="translate(182,152)"/>
<path d="M0 0 C0.33 0 0.66 0 1 0 C1.3125 2.25 1.3125 2.25 1 5 C-0.65385233 6.34919532 -2.321702 7.68133728 -4 9 C-4.33 9.99 -4.66 10.98 -5 12 C-6.22983879 15.68951638 -7.78231937 16.90850759 -11 19 C-11.66 19 -12.32 19 -13 19 C-12.67 19.99 -12.34 20.98 -12 22 C-14.55991624 24.01136276 -17.04590299 25.62845496 -20 27 C-18.27283145 22.95662854 -15.54012322 19.71218614 -12.8125 16.3125 C-11.82133813 15.06662614 -10.830453 13.82053206 -9.83984375 12.57421875 C-9.11450439 11.66422119 -9.11450439 11.66422119 -8.37451172 10.73583984 C-5.95579349 7.68129516 -3.599651 4.57848816 -1.2421875 1.4765625 C-0.83226563 0.98929688 -0.42234375 0.50203125 0 0 Z " fill="#60C89B" transform="translate(82,22)"/>
<path d="M0 0 C4.43328247 3.98995423 5.83246902 6.92261587 6.3125 12.875 C6.22327141 17.14174902 4.89509627 20.20980745 3 24 C2.87625 23.360625 2.7525 22.72125 2.625 22.0625 C2.41875 21.381875 2.2125 20.70125 2 20 C1.34 19.67 0.68 19.34 0 19 C0.66 18.34 1.32 17.68 2 17 C2.23672678 12.81782683 1.96293374 9.06572022 1 5 C0.66666667 3.33333333 0.33333333 1.66666667 0 0 Z " fill="#62BF98" transform="translate(215,87)"/>
<path d="M0 0 C0.33 0 0.66 0 1 0 C1.18248359 4.65333144 0.74862486 7.73772691 -1 12 C-1.16757757 15.20870233 -1.16757757 15.20870233 -1 18 C-0.34 17.34 0.32 16.68 1 16 C1 17.32 1 18.64 1 20 C0.34 20.33 -0.32 20.66 -1 21 C-0.979375 22.175625 -0.95875 23.35125 -0.9375 24.5625 C-0.93052739 28.47413467 -1.35749657 32.14497944 -2 36 C-2.33 36 -2.66 36 -3 36 C-3.33 25.44 -3.66 14.88 -4 4 C-2.68 4 -1.36 4 0 4 C0 2.68 0 1.36 0 0 Z " fill="#3B9972" transform="translate(117,140)"/>
<path d="M0 0 C0.99 0.33 1.98 0.66 3 1 C2.49210937 1.556875 1.98421875 2.11375 1.4609375 2.6875 C-2.54152199 7.12468356 -6.31194108 11.59558186 -9.7734375 16.46875 C-11 18 -11 18 -13 19 C-13 16 -13 13 -13 10 C-12.01 10.33 -11.02 10.66 -10 11 C-7.12579877 8.28395285 -7.12579877 8.28395285 -5 5 C-4.34 5 -3.68 5 -3 5 C-3 4.34 -3 3.68 -3 3 C-2.34 3 -1.68 3 -1 3 C-0.67 2.01 -0.34 1.02 0 0 Z " fill="#4ABA8B" transform="translate(158,182)"/>
<path d="M0 0 C0.66 0 1.32 0 2 0 C2 0.66 2 1.32 2 2 C1.34 2 0.68 2 0 2 C0 1.34 0 0.68 0 0 Z M4 0 C5.32 0 6.64 0 8 0 C6.32076975 3.80133442 3.88537166 6.97082702 1.375 10.25 C0.95476562 10.80429688 0.53453125 11.35859375 0.1015625 11.9296875 C-0.92938719 13.28866663 -1.96429911 14.64463835 -3 16 C-3.96250328 12.95640855 -4.13660153 12.30052337 -2.75 9.25 C-2.1725 8.5075 -1.595 7.765 -1 7 C-0.01 7 0.98 7 2 7 C2 6.34 2 5.68 2 5 C1.01 4.67 0.02 4.34 -1 4 C-0.67 3.34 -0.34 2.68 0 2 C0.99 2 1.98 2 3 2 C3.33 1.34 3.66 0.68 4 0 Z " fill="#49B98A" transform="translate(137,201)"/>
<path d="M0 0 C3.14041545 0.05562733 4.42145416 0.19335122 7.1875 1.8125 C7.661875 2.3075 8.13625 2.8025 8.625 3.3125 C8.295 3.9725 7.965 4.6325 7.625 5.3125 C5.975 4.6525 4.325 3.9925 2.625 3.3125 C2.625 2.6525 2.625 1.9925 2.625 1.3125 C-4.56330831 3.15136957 -7.9775544 7.61210755 -12.375 13.3125 C-13.035 12.9825 -13.695 12.6525 -14.375 12.3125 C-13.08484254 10.68630152 -11.79282303 9.06158017 -10.5 7.4375 C-9.42105469 6.08011719 -9.42105469 6.08011719 -8.3203125 4.6953125 C-5.4825063 1.21928482 -4.48491219 0.02235006 0 0 Z " fill="#62C69B" transform="translate(102.375,2.6875)"/>
<path d="M0 0 C-0.66 1.32 -1.32 2.64 -2 4 C-2.73605469 3.95359375 -3.47210938 3.9071875 -4.23046875 3.859375 C-10.53124322 3.53777378 -10.53124322 3.53777378 -16.1875 6 C-16.785625 6.66 -17.38375 7.32 -18 8 C-18 7.01 -18 6.02 -18 5 C-12.5534729 -0.04308065 -7.05976768 -0.27685363 0 0 Z " fill="#F5FDF9" transform="translate(111,0)"/>
<path d="M0 0 C0 3.69418201 -1.28179295 5.77836178 -3 9 C-3.66 9 -4.32 9 -5 9 C-5.061875 9.5775 -5.12375 10.155 -5.1875 10.75 C-6.32027301 13.88690987 -8.34197595 15.09167504 -11 17 C-11.66 16.67 -12.32 16.34 -13 16 C-12.31292969 15.18015625 -11.62585937 14.3603125 -10.91796875 13.515625 C-10.00775965 12.42712752 -9.09760635 11.33858339 -8.1875 10.25 C-7.73568359 9.71117188 -7.28386719 9.17234375 -6.81835938 8.6171875 C-4.46489931 5.79990684 -2.16578632 2.964465 0 0 Z " fill="#5FC89B" transform="translate(56,55)"/>
<path d="M0 0 C0.99 0.66 1.98 1.32 3 2 C0.03 5.63 -2.94 9.26 -6 13 C-6.99 12.01 -7.98 11.02 -9 10 C-6.82575883 7.49962266 -5.26954202 6.56371414 -2 6 C-1.855625 5.38125 -1.71125 4.7625 -1.5625 4.125 C-1 2 -1 2 0 0 Z " fill="#5AC598" transform="translate(193,137)"/>
<path d="M0 0 C0.99 0.33 1.98 0.66 3 1 C2.505 1.969375 2.01 2.93875 1.5 3.9375 C-0.90093612 9.50948382 -0.6146419 15.23156159 1 21 C0.34 21 -0.32 21 -1 21 C-3.28795532 14.13613404 -2.38836006 6.71726267 0 0 Z " fill="#DEFAF1" transform="translate(6,114)"/>
<path d="M0 0 C0.33 0.99 0.66 1.98 1 3 C-0.60486507 5.12408612 -2.21711754 7.03835888 -4 9 C-4.94273857 10.12061378 -5.8805272 11.24541692 -6.8125 12.375 C-7.534375 13.24125 -8.25625 14.1075 -9 15 C-9.66 14.67 -10.32 14.34 -11 14 C-7.46386286 9.21224044 -3.85516296 4.53548584 0 0 Z " fill="#CAF5E6" transform="translate(181,156)"/>
<path d="M0 0 C0.33 0.66 0.66 1.32 1 2 C0.1796875 4.12890625 0.1796875 4.12890625 -1.125 6.5625 C-1.54007813 7.36816406 -1.95515625 8.17382812 -2.3828125 9.00390625 C-4 11 -4 11 -6.6796875 11.77734375 C-7.82824219 11.88755859 -7.82824219 11.88755859 -9 12 C-6 8 -3 4 0 0 Z " fill="#D4F6EA" transform="translate(146,200)"/>
<path d="M0 0 C0.99 0 1.98 0 3 0 C2.82374165 2.37948772 2.30280227 3.70225849 0.59765625 5.37890625 C-0.90649092 6.62115486 -2.45129851 7.81376056 -4 9 C-4 5 -4 5 -3 3 C-2.01 3 -1.02 3 0 3 C0 2.01 0 1.02 0 0 Z " fill="#4EBF8F" transform="translate(165,172)"/>
<path d="M0 0 C0.66 0.66 1.32 1.32 2 2 C0.35 3.98 -1.3 5.96 -3 8 C-3.66 7.67 -4.32 7.34 -5 7 C-5 5.02 -5 3.04 -5 1 C-2.625 0.375 -2.625 0.375 0 0 Z " fill="#52C694" transform="translate(182,152)"/>
<path d="M0 0 C0 3.36403475 -0.61880053 4.40092917 -2.375 7.1875 C-2.81585937 7.90292969 -3.25671875 8.61835937 -3.7109375 9.35546875 C-4.13632813 9.89816406 -4.56171875 10.44085938 -5 11 C-5.66 11 -6.32 11 -7 11 C-7 11.66 -7 12.32 -7 13 C-7.66 13 -8.32 13 -9 13 C-7.47987323 7.59510481 -3.72614782 4.01507372 0 0 Z " fill="#65C69C" transform="translate(17,104)"/>
<path d="M0 0 C0.66 0 1.32 0 2 0 C2.97551509 2.92654527 3.16478088 4.94654996 3.1875 8 C3.20167969 8.86625 3.21585938 9.7325 3.23046875 10.625 C3 13 3 13 1 16 C0.34 15.34 -0.32 14.68 -1 14 C-0.34 13.34 0.32 12.68 1 12 C1.23600253 7.83062202 0.98329211 4.05607995 0 0 Z " fill="#41CD93" transform="translate(216,92)"/>
<path d="M0 0 C1 3 1 3 -0.0625 5.4375 C-2.33789848 8.44689798 -4.78341153 10.07004692 -8 12 C-6.59023295 8.96147295 -4.91129772 6.4060405 -2.875 3.75 C-2.06675781 2.69039063 -2.06675781 2.69039063 -1.2421875 1.609375 C-0.83226562 1.07828125 -0.42234375 0.5471875 0 0 Z " fill="#66CAA1" transform="translate(39,76)"/>
<path d="M0 0 C0.66 0 1.32 0 2 0 C0.73058503 3.91402949 -0.51167694 5.79072873 -4 8 C-4 4.06830895 -2.60580385 2.83572772 0 0 Z " fill="#56C696" transform="translate(26,93)"/>
<path d="M0 0 C0 0.33 0 0.66 0 1 C-1.8253125 1.12375 -1.8253125 1.12375 -3.6875 1.25 C-7.78465871 1.73758372 -10.00139908 3.09510536 -13 6 C-13 3 -13 3 -11.5625 1.3125 C-7.77217682 -0.62888504 -4.17972943 -0.24113824 0 0 Z " fill="#E0FDF4" transform="translate(106,2)"/>
<path d="M0 0 C0.33 0 0.66 0 1 0 C1.17835515 4.54805635 0.99785435 7.8794254 -1 12 C-1.33 12 -1.66 12 -2 12 C-2 9.69 -2 7.38 -2 5 C-2.66 4.67 -3.32 4.34 -4 4 C-2.68 4 -1.36 4 0 4 C0 2.68 0 1.36 0 0 Z " fill="#269F6D" transform="translate(117,140)"/>
<path d="M0 0 C0.66 0.33 1.32 0.66 2 1 C-0.97 4.96 -0.97 4.96 -4 9 C-4.33 7.68 -4.66 6.36 -5 5 C-2.5625 2.25 -2.5625 2.25 0 0 Z " fill="#E6FEF7" transform="translate(65,41)"/>
<path d="M0 0 C1.485 0.99 1.485 0.99 3 2 C3.375 4.5 3.375 4.5 3 7 C2.01 7.66 1.02 8.32 0 9 C0 6 0 3 0 0 Z " fill="#40BE88" transform="translate(145,192)"/>
<path d="M0 0 C0.99 0.33 1.98 0.66 3 1 C2.8125 2.8125 2.8125 2.8125 2 5 C-0.5625 6.75 -0.5625 6.75 -3 8 C-1.125 1.125 -1.125 1.125 0 0 Z " fill="#51CA97" transform="translate(74,32)"/>
<path d="M0 0 C3.625 -0.1875 3.625 -0.1875 7 0 C5.875 1.5 5.875 1.5 4 3 C0.8125 3.1875 0.8125 3.1875 -2 3 C-1.34 2.01 -0.68 1.02 0 0 Z " fill="#59B68D" transform="translate(122,221)"/>
<path d="M0 0 C0.33 0.66 0.66 1.32 1 2 C-0.98 4.31 -2.96 6.62 -5 9 C-5.66 8.67 -6.32 8.34 -7 8 C-4.69 5.36 -2.38 2.72 0 0 Z " fill="#D1FBEC" transform="translate(191,144)"/>
<path d="M0 0 C0.66 0.33 1.32 0.66 2 1 C1.34 2.65 0.68 4.3 0 6 C-0.99 5.01 -1.98 4.02 -3 3 C-2.01 2.01 -1.02 1.02 0 0 Z " fill="#4CC593" transform="translate(187,144)"/>
</svg>
